<?xml version="1.0" standalone="no"?>
<!DOCTYPE svg PUBLIC "-//W3C//DTD SVG 1.1//EN" "http://www.w3.org/Graphics/SVG/1.1/DTD/svg11.dtd" >
<svg xmlns="http://www.w3.org/2000/svg">
<metadata>Generated by IcoMoon</metadata>
<defs>
<font id="fiicons" horiz-adv-x="1024">
<font-face units-per-em="1024" ascent="960" descent="-64" />
<missing-glyph horiz-adv-x="1024" />
<glyph unicode="&#x20;" horiz-adv-x="512" d="" />
<glyph unicode="&#xe900;" glyph-name="acrobat" horiz-adv-x="1084" d="M1011.953 333.553v0c-36.141 36.141-102.4 54.212-192.753 54.212-42.165 0-90.353-6.024-138.541-12.047-30.118 30.118-54.212 60.235-78.306 96.376-18.071 24.094-36.141 48.188-54.212 78.306 30.118 96.376 48.188 180.706 48.188 240.941 0 102.4-48.188 168.659-126.494 168.659-30.118 0-60.235-18.071-78.306-48.188-36.141-66.259-24.094-192.753 30.118-319.247-18.071-60.235-42.165-114.447-60.235-174.682-24.094-54.212-48.188-102.4-72.282-150.588-84.329-36.141-259.012-120.471-277.082-216.847-6.024-30.118 6.024-60.235 30.118-90.353 18.071-12.047 48.188-24.094 78.306-24.094 114.447 0 216.847 150.588 289.129 283.106 36.141 12.047 78.306 24.094 114.447 36.141s78.306 18.071 114.447 24.094l18.071-18.071v6.024c108.424-90.353 198.776-102.4 246.965-102.4 84.329 0 108.424 42.165 114.447 66.259 24.094 42.165 12.047 78.306-6.024 102.4zM861.365 267.294v0c-30.118 6.024-60.235 18.071-84.329 36.141 42.165 0 84.329 0 108.424-6.024s24.094-12.047 18.071-18.071v0c-6.024-12.047-24.094-18.071-42.165-12.047zM469.835 863.624v0c0 0 6.024-6.024 6.024-30.118s-6.024-48.188-12.047-84.329c-6.024 60.235-6.024 102.4 6.024 114.447zM469.835 327.529c6.024 18.071 12.047 30.118 18.071 48.188s18.071 42.165 24.094 60.235c6.024-6.024 12.047-12.047 12.047-18.071 18.071-24.094 36.141-42.165 48.188-60.235-24.094-6.024-48.188-12.047-66.259-18.071-12.047 0-24.094-6.024-36.141-12.047zM198.776 122.729c-54.212-72.282-90.353-90.353-102.4-90.353 6.024 18.071 36.141 54.212 102.4 90.353z" />
<glyph unicode="&#xe901;" glyph-name="android" horiz-adv-x="796" d="M147.297 185.473c0-26.742 19.813-48.568 44.189-48.568h50.517v-137.595c0-34.854 25.414-63.31 56.637-63.31 31.327 0 56.637 28.342 56.637 63.31v137.709h88.171v-137.591c0-34.858 25.414-63.314 56.635-63.314 31.327 0 56.639 28.342 56.639 63.314v137.591h50.517c24.375 0 44.187 21.83 44.187 48.572v451.636h-504.13v-451.753zM517.719 871.273l46.577 74.282c2.697 4.343 2.075 10.171-1.559 13.028-3.63 2.743-8.814 1.371-11.514-2.971l-48.337-77.254c-31.846 13.828-67.322 21.485-104.562 21.485-37.238 0-72.714-7.656-104.56-21.485l-48.338 77.139c-2.697 4.343-7.883 5.828-11.514 2.971-3.631-2.743-4.253-8.457-1.556-13.028l46.575-74.282c-74.064-37.941-125.929-109.824-132.568-193.82h504.13c-6.846 84.111-58.816 155.993-132.775 193.934v0zM291.898 754.135c-5.519 0-10.914 1.803-15.502 5.181s-8.165 8.179-10.277 13.797c-2.112 5.617-2.665 11.798-1.588 17.761s3.734 11.441 7.637 15.74c3.902 4.299 8.874 7.227 14.287 8.413s11.023 0.577 16.122-1.75c5.099-2.327 9.456-6.267 12.523-11.322s4.702-10.999 4.702-17.079c-0.019-8.147-2.965-15.954-8.194-21.714s-12.315-9.006-19.71-9.027v0zM508.075 754.135c-5.522 0-10.915 1.803-15.504 5.181s-8.165 8.179-10.278 13.797c-2.112 5.617-2.662 11.798-1.589 17.761 1.077 5.963 3.736 11.441 7.638 15.74s8.875 7.227 14.287 8.413c5.412 1.186 11.025 0.577 16.122-1.75s9.459-6.267 12.523-11.322c3.064-5.055 4.703-10.999 4.703-17.079-0.019-8.147-2.966-15.954-8.196-21.714-5.226-5.761-12.315-9.006-19.706-9.027zM739.806 639.055c-31.327 0-56.635-28.342-56.635-63.312v-247.304c0-34.854 25.414-63.31 56.635-63.31 31.327 0 56.639 28.342 56.639 63.31v247.417c0.102 34.971-25.206 63.199-56.639 63.199zM56.637 639.055c-31.327 0-56.637-28.342-56.637-63.312v-247.304c0-34.854 25.414-63.31 56.637-63.31 31.326 0 56.637 28.342 56.637 63.31v247.417c0 34.971-25.414 63.199-56.637 63.199z" />
<glyph unicode="&#xe902;" glyph-name="arrow-bottom" horiz-adv-x="819" d="M405.004 896.325c-14.136 0-27.693-6.293-37.689-17.493s-15.611-26.393-15.611-42.233v-691.996l-228.766 256.469c-10.009 11.215-23.583 17.516-37.737 17.516s-27.728-6.301-37.737-17.516c-10.008-11.215-15.631-26.426-15.631-42.286s5.623-31.072 15.631-42.286l319.803-358.36c4.951-5.564 10.833-9.974 17.308-12.984s13.418-4.56 20.428-4.56c7.011 0 13.953 1.55 20.429 4.56s12.357 7.421 17.308 12.984l319.805 358.36c10.008 11.215 15.626 26.426 15.626 42.286s-5.618 31.072-15.626 42.286c-10.008 11.215-23.586 17.516-37.738 17.516s-27.73-6.301-37.738-17.516l-228.766-256.469v691.996c0 15.841-5.616 31.032-15.611 42.233s-23.553 17.493-37.689 17.493z" />
<glyph unicode="&#xe903;" glyph-name="arrow-circle-bottom" d="M1018.311 448c0 278.756-227.556 506.311-506.311 506.311s-506.311-227.556-506.311-506.311c0-278.756 227.556-506.311 506.311-506.311s506.311 227.556 506.311 506.311zM352.711 66.844c-51.2 22.756-91.022 51.2-130.844 91.022-73.956 73.956-113.778 170.667-119.467 273.067-5.689 96.711 28.444 199.111 91.022 278.756s159.289 130.844 256 142.222c102.4 17.067 204.8-5.689 290.133-62.578s142.222-142.222 170.667-244.622c5.689-34.133 11.378-62.578 11.378-96.711 0-68.267-17.067-136.533-51.2-193.422-51.2-91.022-130.844-159.289-227.556-193.422-91.022-34.133-199.111-34.133-290.133 5.689zM699.733 504.889l-142.222-142.222v364.089h-96.711v-364.089l-136.533 142.222-68.267-68.267 256-256 250.311 256z" />
<glyph unicode="&#xe904;" glyph-name="arrow-circle-left" d="M5.689 448c0-278.756 227.556-506.311 506.311-506.311s506.311 227.556 506.311 506.311c0 278.756-227.556 506.311-506.311 506.311s-506.311-227.556-506.311-506.311zM119.467 584.533c34.133 96.711 102.4 176.356 193.422 227.556 62.578 34.133 125.156 51.2 193.422 51.2 34.133 0 68.267-5.689 96.711-11.378 96.711-22.756 187.733-85.333 244.622-170.667s79.644-187.733 68.267-290.133c-17.067-102.4-68.267-193.422-142.222-256-79.644-62.578-176.356-96.711-278.756-91.022s-199.111 45.511-273.067 119.467c-39.822 39.822-68.267 79.644-91.022 130.844-39.822 91.022-45.511 193.422-11.378 290.133zM563.2 635.733l-136.533-136.533h364.089v-96.711h-364.089l136.533-142.222-62.578-62.578-256 250.311 256 256z" />
<glyph unicode="&#xe905;" glyph-name="arrow-circle-right" d="M512 954.311c-278.756 0-506.311-227.556-506.311-506.311s227.556-506.311 506.311-506.311c278.756 0 506.311 227.556 506.311 506.311s-227.556 506.311-506.311 506.311zM893.156 288.711c-22.756-51.2-51.2-91.022-91.022-130.844-73.956-73.956-170.667-113.778-273.067-119.467s-199.111 28.444-278.756 91.022c-79.644 68.267-130.844 159.289-142.222 261.689-17.067 102.4 5.689 204.8 62.578 284.444 56.889 85.333 142.222 142.222 244.622 170.667 34.133 11.378 62.578 11.378 96.711 11.378 68.267 0 136.533-17.067 193.422-51.2 91.022-51.2 159.289-130.844 193.422-227.556 34.133-91.022 34.133-193.422-5.689-290.133zM455.111 635.733l142.222-136.533h-364.089v-96.711h364.089l-142.222-142.222 68.267-62.578 256 250.311-256 256z" />
<glyph unicode="&#xe906;" glyph-name="arrow-circle-top" d="M512 954.311c-278.756 0-506.311-227.556-506.311-506.311s227.556-506.311 506.311-506.311c278.756 0 506.311 227.556 506.311 506.311s-227.556 506.311-506.311 506.311zM648.533 840.533c96.711-34.133 176.356-102.4 227.556-193.422 34.133-62.578 51.2-125.156 51.2-193.422 0-34.133-5.689-68.267-11.378-96.711-22.756-96.711-85.333-187.733-170.667-244.622s-187.733-79.644-290.133-68.267c-102.4 17.067-193.422 68.267-256 142.222-62.578 79.644-96.711 176.356-91.022 278.756s45.511 199.111 119.467 273.067c39.822 39.822 79.644 68.267 130.844 91.022 85.333 39.822 193.422 45.511 290.133 11.378zM699.733 396.8l-142.222 136.533v-364.089h-96.711v364.089l-136.533-136.533-68.267 62.578 256 256 250.311-256z" />
<glyph unicode="&#xe907;" glyph-name="arrow-left" horiz-adv-x="1303" d="M1303.273 451.131c0 19.277-8.583 37.764-23.859 51.395-15.267 13.63-35.989 21.288-57.586 21.288h-943.627l349.727 311.953c15.293 13.648 23.885 32.158 23.885 51.459s-8.592 37.811-23.885 51.459c-15.293 13.648-36.035 21.315-57.663 21.315s-42.37-7.667-57.663-21.315l-488.673-436.095c-7.585-6.752-13.602-14.773-17.708-23.602s-6.219-18.297-6.219-27.857c0-9.56 2.114-19.026 6.219-27.857s10.123-16.85 17.708-23.602l488.673-436.098c15.293-13.647 36.035-21.309 57.663-21.309s42.37 7.661 57.663 21.309c15.293 13.647 23.885 32.163 23.885 51.461 0 19.303-8.592 37.814-23.885 51.462l-349.727 311.953h943.627c21.597 0 42.319 7.658 57.586 21.288 15.276 13.63 23.859 32.117 23.859 51.394z" />
<glyph unicode="&#xe908;" glyph-name="arrow-right" horiz-adv-x="1303" d="M0 451.131c0 19.277 8.581 37.764 23.855 51.395s35.99 21.288 57.591 21.288h943.625l-349.725 311.953c-15.293 13.648-23.885 32.158-23.885 51.459s8.592 37.811 23.885 51.459c15.293 13.648 36.035 21.315 57.663 21.315s42.37-7.667 57.663-21.315l488.676-436.095c7.578-6.752 13.601-14.773 17.706-23.602s6.218-18.297 6.218-27.857c0-9.56-2.113-19.026-6.218-27.857s-10.128-16.85-17.706-23.602l-488.676-436.098c-15.293-13.647-36.035-21.309-57.663-21.309s-42.37 7.661-57.663 21.309c-15.293 13.647-23.885 32.163-23.885 51.461 0 19.303 8.592 37.814 23.885 51.462l349.725 311.953h-943.625c-21.601 0-42.317 7.658-57.591 21.288s-23.855 32.117-23.855 51.394z" />
<glyph unicode="&#xe909;" glyph-name="arrow-top" horiz-adv-x="819" d="M409.604-27.566c-14.137 0-27.694 6.294-37.689 17.49-9.996 11.203-15.611 26.399-15.611 42.237v691.993l-228.766-256.466c-10.009-11.215-23.583-17.516-37.736-17.516s-27.729 6.301-37.737 17.516c-10.008 11.215-15.631 26.426-15.631 42.286s5.623 31.072 15.631 42.286l319.803 358.36c4.951 5.562 10.833 9.975 17.308 12.986s13.418 4.561 20.429 4.561c7.010 0 13.952-1.55 20.428-4.561s12.357-7.424 17.308-12.986l319.806-358.36c10.008-11.215 15.626-26.426 15.626-42.286s-5.618-31.072-15.626-42.286c-10.015-11.215-23.586-17.516-37.738-17.516-14.159 0-27.73 6.301-37.738 17.516l-228.767 256.466v-691.993c0-15.838-5.615-31.034-15.611-42.237-9.996-11.196-23.553-17.49-37.689-17.49z" />
<glyph unicode="&#xe90a;" glyph-name="back-to-top" horiz-adv-x="896" d="M522.667-64.013v448.003h373.333l-448 522.666-448-522.666h373.333v-448.003h149.334z" />
<glyph unicode="&#xe90b;" glyph-name="business" horiz-adv-x="1073" d="M975.238 70.88h97.524v-97.524h-1072.762v97.524h97.524v828.95c0 12.933 5.138 25.335 14.282 34.48s21.547 14.282 34.48 14.282h780.19c12.932 0 25.337-5.137 34.48-14.282s14.282-21.547 14.282-34.48v-828.95zM877.714 70.88v780.188h-682.667v-780.188h682.667zM341.333 509.735h146.286v-97.521h-146.286v97.521zM341.333 704.783h146.286v-97.524h-146.286v97.524zM341.333 314.69h146.286v-97.524h-146.286v97.524zM585.143 314.69h146.286v-97.524h-146.286v97.524zM585.143 509.735h146.286v-97.521h-146.286v97.521zM585.143 704.783h146.286v-97.524h-146.286v97.524z" />
<glyph unicode="&#xe90c;" glyph-name="calendar-2" horiz-adv-x="922" d="M824.32 785.92c-35.84 35.84-87.040 56.32-148.48 66.56v20.48c0 25.6-20.48 46.080-46.080 46.080s-46.080-20.48-46.080-46.080v-20.48h-250.88v20.48c0 25.6-20.48 46.080-46.080 46.080s-46.080-20.48-46.080-46.080v-25.6c-133.12-15.36-209.92-102.4-209.92-240.64v-384c0-153.6 97.28-245.76 250.88-245.76h358.4c153.6 0 250.88 92.16 250.88 245.76v384c0 76.8-20.48 138.24-66.56 179.2zM240.64 760.32v-25.6c0-25.6 20.48-46.080 46.080-46.080s46.080 20.48 46.080 46.080v25.6h250.88v-25.6c0-25.6 20.48-46.080 46.080-46.080s46.080 20.48 46.080 46.080v25.6c35.84-5.12 61.44-15.36 81.92-35.84 25.6-25.6 35.84-61.44 35.84-112.64v-5.12h-670.72c0 107.52 56.32 143.36 117.76 153.6zM640 69.12h-358.4c-71.68 0-158.72 25.6-158.72 153.6v291.84h675.84v-291.84c0-128-87.040-153.6-158.72-153.6z" />
<glyph unicode="&#xe90d;" glyph-name="calendar" horiz-adv-x="904" d="M0 759.216v-702.745c0-26.624 10.577-52.164 29.404-70.987 18.827-18.83 44.362-29.407 70.988-29.407h702.743c26.63 0 52.164 10.577 70.987 29.407 18.83 18.824 29.407 44.363 29.407 70.987v702.745c0 26.625-10.577 52.161-29.407 70.988-18.824 18.827-44.357 29.404-70.987 29.404h-100.388v100.392h-100.394v-100.392h-301.176v100.392h-100.392v-100.392h-100.392c-26.626 0-52.161-10.577-70.988-29.404s-29.404-44.363-29.404-70.988v0zM803.135 56.471h-702.743v602.353h702.743v-602.353z" />
<glyph unicode="&#xe90e;" glyph-name="chevron-bottom" horiz-adv-x="1621" d="M31.309 875.283c-41.813-41.813-41.813-109.226 0-151.040l709.12-709.122c33.28-33.28 87.040-33.28 120.32 0l709.12 709.122c41.813 41.813 41.813 109.227 0 151.040s-109.227 41.813-151.040 0l-618.667-617.813-618.667 618.666c-40.96 40.96-109.226 40.96-150.186-0.853v0z" />
<glyph unicode="&#xe90f;" glyph-name="chevron-left" horiz-adv-x="563" d="M531.645-13.302c-25.089-25.088-65.537-25.088-90.625 0l-425.472 425.472c-19.968 19.968-19.968 52.224 0 72.192l425.472 425.472c25.088 25.088 65.536 25.088 90.625 0s25.088-65.536 0-90.624l-370.689-371.2 371.201-371.2c24.576-24.576 24.576-65.536-0.512-90.112v0z" />
<glyph unicode="&#xe910;" glyph-name="chevron-right" horiz-adv-x="563" d="M19.455-13.302c25.088-25.088 65.536-25.088 90.624 0l425.473 425.472c19.968 19.968 19.968 52.224 0 72.192l-425.473 425.472c-25.088 25.088-65.536 25.088-90.624 0s-25.088-65.536 0-90.624l370.688-371.2-371.2-371.2c-24.576-24.576-24.576-65.536 0.512-90.112v0z" />
<glyph unicode="&#xe911;" glyph-name="chevron-top" horiz-adv-x="1621" d="M31.309 21.632c-41.813 41.813-41.813 109.228 0 151.042l709.12 709.12c33.28 33.28 87.040 33.28 120.32 0l709.12-709.12c41.813-41.813 41.813-109.228 0-151.042s-109.227-41.813-151.040 0l-618.667 617.816-618.667-618.669c-40.96-40.96-109.226-40.96-150.186 0.853v0z" />
<glyph unicode="&#xe912;" glyph-name="facebook" horiz-adv-x="542" d="M495.324 387.765l26.767 174.419h-167.36v113.186c0 47.718 23.379 94.23 98.334 94.23h76.085v148.499c0 0-69.045 11.784-135.059 11.784-137.826 0-227.916-83.539-227.916-234.767v-132.931h-153.205v-174.419h153.205v-421.647h188.556v421.647h140.593z" />
<glyph unicode="&#xe913;" glyph-name="favourite" horiz-adv-x="1138" d="M807.822 931.556c-102.4 0-187.733-68.267-238.933-113.778-51.2 51.2-136.533 113.778-238.933 113.778-159.289 0-290.133-130.844-290.133-290.133 0-136.533 62.578-398.222 477.867-654.222 17.067-11.378 34.133-17.067 51.2-17.067s39.822 5.689 56.889 17.067c415.289 256 477.867 517.689 477.867 654.222-5.689 159.289-136.533 290.133-295.822 290.133zM568.889 89.6c-364.089 227.556-415.289 443.733-415.289 551.822 0 96.711 79.644 176.356 182.044 176.356 85.333 0 164.978-85.333 193.422-119.467 5.689-11.378 22.756-22.756 39.822-22.756 0 0 0 0 0 0 17.067 0 34.133 5.689 45.511 22.756 22.756 34.133 108.089 119.467 193.422 119.467 96.711 0 182.044-79.644 182.044-176.356-5.689-113.778-56.889-329.956-420.978-551.822z" />
<glyph unicode="&#xe914;" glyph-name="feeds" d="M987.429 0c0 525.145-425.713 950.857-950.857 950.857v-190.183c420.115 0 760.671-340.559 760.671-760.674h190.186zM607.063 0c0 315.087-255.404 570.492-570.492 570.492v-190.124c210.058 0 380.366-170.309 380.366-380.368h190.126zM226.755 0c0 105.026-85.154 190.186-190.183 190.186v-190.186h190.183z" />
<glyph unicode="&#xe915;" glyph-name="government" horiz-adv-x="975" d="M0 35.83h975.238v-97.524h-975.238v97.524zM97.524 425.925h97.524v-341.333h-97.524v341.333zM341.333 425.925h97.524v-341.333h-97.524v341.333zM536.381 425.925h97.524v-341.333h-97.524v341.333zM780.19 425.925h97.524v-341.333h-97.524v341.333zM0 669.735l487.619 243.81 487.619-243.81v-195.048h-975.238v195.048zM97.524 609.465v-37.254h780.19v37.254l-390.095 195.048-390.095-195.048zM487.619 620.973c-12.933 0-25.335 5.138-34.48 14.282s-14.282 21.547-14.282 34.48c0 12.933 5.138 25.335 14.282 34.48s21.547 14.282 34.48 14.282c12.932 0 25.337-5.137 34.48-14.282s14.282-21.547 14.282-34.48c0-12.932-5.14-25.335-14.282-34.48s-21.548-14.282-34.48-14.282z" />
<glyph unicode="&#xe916;" glyph-name="happiness" d="M507.904 960c-278.528 0-507.904-229.376-507.904-507.904s229.376-507.904 507.904-507.904c278.528 0 507.904 229.376 507.904 507.904s-225.28 507.904-507.904 507.904zM507.904 26.112c-233.472 0-425.984 188.416-425.984 425.984 0 233.472 188.416 425.984 425.984 425.984s425.984-188.416 425.984-425.984c0-233.472-192.512-425.984-425.984-425.984zM700.416 345.6c-12.288-24.576-28.672-40.96-49.152-61.44-24.576-20.48-53.248-36.864-86.016-45.056s-65.536-8.192-94.208-4.096c-32.768 4.096-61.44 20.48-86.016 36.864-24.576 20.48-49.152 45.056-65.536 69.632l-73.728-36.864c20.48-36.864 53.248-73.728 86.016-98.304 36.864-24.576 77.824-45.056 122.88-53.248 16.384-4.096 36.864-4.096 53.248-4.096 24.576 0 53.248 4.096 77.824 12.288 40.96 12.288 81.92 32.768 114.688 61.44 28.672 24.576 49.152 49.152 65.536 81.92 4.096 8.192 8.192 12.288 12.288 20.48l-73.728 36.864c0-4.096-4.096-12.288-4.096-16.384z" />
<glyph unicode="&#xe917;" glyph-name="home" d="M51.202 396.8h51.2v-358.4c0-56.474 45.926-102.4 102.4-102.4h614.398c56.474 0 102.4 45.926 102.4 102.4v358.4h51.2c10.127 0.005 20.024 3.011 28.442 8.632 8.417 5.627 14.976 13.624 18.852 22.979s4.89 19.646 2.913 29.577c-1.976 9.931-6.851 19.053-14.008 26.213l-460.8 460.8c-4.751 4.759-10.394 8.534-16.604 11.11s-12.867 3.902-19.594 3.902c-6.723 0-13.381-1.326-19.592-3.902s-11.854-6.351-16.605-11.11l-460.8-460.8c-7.158-7.16-12.033-16.282-14.007-26.213s-0.961-20.222 2.914-29.577c3.874-9.354 10.435-17.352 18.853-22.979 8.418-5.622 18.315-8.627 28.439-8.632zM409.602 38.4v256h204.798v-256h-204.798zM512 836.405l307.2-307.2v-234.805l0.051-256h-102.451v256c0 56.474-45.926 102.4-102.4 102.4h-204.798c-56.474 0-102.4-45.926-102.4-102.4v-256h-102.4v490.805l307.198 307.2z" />
<glyph unicode="&#xe918;" glyph-name="individual" horiz-adv-x="745" d="M744.727-21.071h-93.091v93.091c0 37.036-14.713 72.55-40.899 98.737s-61.705 40.899-98.737 40.899h-279.273c-37.034 0-72.551-14.713-98.738-40.899s-40.899-61.701-40.899-98.737v-93.091h-93.091v93.091c0 61.724 24.519 120.92 68.164 164.561 43.645 43.646 102.84 68.166 164.563 68.166h279.273c61.724 0 120.92-24.52 164.561-68.166 43.646-43.641 68.166-102.838 68.166-164.561v-93.091zM372.364 397.838c-36.675 0-72.99 7.224-106.873 21.257-33.883 14.038-64.67 34.607-90.603 60.542-25.933 25.931-46.504 56.718-60.539 90.601s-21.258 70.198-21.258 106.873c0 36.675 7.223 72.99 21.258 106.873s34.606 64.67 60.539 90.603c25.933 25.933 56.72 46.504 90.603 60.539s70.198 21.258 106.873 21.258c74.068 0 145.101-29.423 197.474-81.797 52.378-52.374 81.799-123.408 81.799-197.476s-29.421-145.102-81.799-197.474c-52.373-52.378-123.406-81.799-197.474-81.799v0zM372.364 490.929c49.379 0 96.735 19.616 131.649 54.531 34.918 34.916 54.533 82.272 54.533 131.651s-19.614 96.734-54.533 131.651c-34.914 34.916-82.27 54.531-131.649 54.531s-96.734-19.615-131.651-54.531c-34.916-34.916-54.531-82.272-54.531-131.651s19.616-96.734 54.531-131.651c34.916-34.916 82.272-54.531 131.651-54.531v0z" />
<glyph unicode="&#xe919;" glyph-name="info" d="M512.005 922.076c-93.763 0-185.421-27.804-263.382-79.896s-138.724-126.132-174.606-212.758c-35.882-86.626-45.27-181.946-26.978-273.907s63.443-176.435 129.744-242.734c66.301-66.304 150.772-111.451 242.734-129.746 91.961-18.29 187.282-8.903 273.907 26.977 86.625 35.886 160.666 96.649 212.759 174.609s79.895 169.62 79.895 263.381c0 62.256-12.26 123.903-36.085 181.42s-58.743 109.779-102.77 153.801c-44.021 44.022-96.279 78.942-153.799 102.766-57.515 23.824-119.165 36.087-181.419 36.087v0zM512.005 68.745c-75.011 0-148.337 22.244-210.706 63.915-62.368 41.677-110.979 100.904-139.684 170.206s-36.216 145.558-21.582 219.127c14.634 73.569 50.755 141.147 103.795 194.187s120.618 89.161 194.187 103.795c73.569 14.634 149.824 7.123 219.126-21.582s128.535-77.316 170.206-139.685c41.677-62.369 63.92-135.695 63.92-210.705 0-100.588-39.959-197.054-111.087-268.176-71.122-71.122-167.589-111.081-268.175-111.081v0zM512.005 590.223c26.183 0 47.408 21.225 47.408 47.407s-21.225 47.408-47.408 47.408c-26.183 0-47.407-21.225-47.407-47.408s21.225-47.407 47.407-47.407zM512.005 542.816c-12.573 0-24.631-4.995-33.522-13.885s-13.885-20.949-13.885-33.522v-237.036c0-12.572 4.995-24.633 13.885-33.525 8.891-8.886 20.949-13.881 33.522-13.881s24.632 4.995 33.522 13.881c8.891 8.892 13.885 20.952 13.885 33.525v237.036c0 12.574-4.995 24.632-13.885 33.522s-20.949 13.885-33.522 13.885z" />
<glyph unicode="&#xe91a;" glyph-name="instagram" d="M726.959 929.94c49.233-2.264 83.267-9.499 114.715-21.706 29.82-11.149 56.81-28.731 79.064-51.496 22.765-22.252 40.346-49.246 51.496-79.064 12.207-31.488 19.445-65.482 21.709-114.715 2.786-61.036 3.11-82.54 3.11-214.959s-0.323-153.923-3.11-214.959c-2.264-49.233-9.502-83.267-21.709-114.753-11.156-29.804-28.737-56.789-51.496-79.026-22.248-22.765-49.244-40.351-79.064-51.496-31.485-12.207-65.482-19.445-114.715-21.709-61.036-2.786-82.502-3.11-214.959-3.11-132.46 0-153.964 0.323-214.959 3.11-49.233 2.264-83.267 9.502-114.755 21.709-29.804 11.151-56.785 28.737-79.023 51.496-22.766 22.253-40.348 49.244-51.496 79.064-12.207 31.485-19.443 65.482-21.706 114.715-2.789 60.955-3.112 82.459-3.112 214.959 0 132.46 0.323 154.004 3.112 214.959 2.264 49.233 9.499 83.267 21.706 114.715 11.149 29.818 28.731 56.812 51.496 79.064 22.24 22.76 49.22 40.342 79.023 51.496 31.528 12.207 65.523 19.443 114.755 21.706 60.955 2.789 82.459 3.112 214.959 3.112 132.457 0 154.004-0.323 214.959-3.112v0zM512 825.25c-130.964 0-151.013-0.283-210.068-2.991-37.47-1.698-59.944-6.467-80.6-14.511-17.583-6.872-28.78-14.147-41.876-27.203-13.096-13.096-20.372-24.293-27.203-41.876-8.003-20.615-12.813-43.129-14.511-80.6-2.708-59.055-2.991-79.104-2.991-210.068s0.283-151.013 2.991-210.071c1.698-37.468 6.467-59.942 14.511-80.556 6.872-17.624 14.147-28.818 27.203-41.914 13.096-13.096 24.293-20.372 41.876-27.206 20.615-8.003 43.129-12.816 80.6-14.514 59.096-2.706 79.144-2.991 210.068-2.991 130.964 0 150.975 0.286 210.071 2.991 37.468 1.698 59.942 6.473 80.594 14.514 17.586 6.872 28.78 14.147 41.876 27.206 13.096 13.096 20.372 24.29 27.206 41.876 8.003 20.615 12.816 43.127 14.514 80.594 2.706 59.096 2.991 79.144 2.991 210.071 0 130.924-0.286 150.973-2.991 210.068-1.698 37.47-6.473 59.944-14.514 80.559-5.718 15.882-15.026 30.228-27.206 41.917-11.684 12.179-26.031 21.489-41.914 27.203-20.615 8.003-43.132 12.813-80.6 14.511-59.058 2.708-79.107 2.991-210.068 2.991h0.040zM512 196.5c-66.702 0-130.672 26.495-177.837 73.663-47.165 47.163-73.663 111.136-73.663 177.836 0 66.702 26.497 130.672 73.663 177.837s111.135 73.663 177.837 73.663c66.7 0 130.673-26.497 177.836-73.663 47.169-47.165 73.663-111.135 73.663-177.837 0-66.7-26.495-130.673-73.663-177.836-47.163-47.169-111.136-73.663-177.836-73.663v0zM512 304.263c38.12 0 74.682 15.144 101.64 42.097 26.953 26.958 42.097 63.52 42.097 101.64s-15.144 74.681-42.097 101.637c-26.958 26.956-63.52 42.1-101.64 42.1s-74.681-15.144-101.637-42.1-42.1-63.516-42.1-101.637c0-38.12 15.144-74.682 42.1-101.64 26.956-26.953 63.516-42.097 101.637-42.097v0zM763.5 645.619c-14.293 0-28.004 5.679-38.114 15.787s-15.786 23.819-15.786 38.114c0 14.296 5.675 28.006 15.786 38.114s23.821 15.787 38.114 15.787c14.293 0 28.004-5.679 38.114-15.787s15.786-23.819 15.786-38.114c0-14.295-5.675-28.005-15.786-38.114s-23.821-15.787-38.114-15.787z" />
<glyph unicode="&#xe91b;" glyph-name="ios" horiz-adv-x="860" d="M711.721-18.33c-55.194-53.506-115.458-45.056-173.466-19.71-61.391 25.907-117.711 27.034-182.478 0-81.101-34.918-123.904-24.785-172.339 19.71-274.842 283.288-234.291 714.701 77.722 730.47 76.032-3.942 128.973-41.677 173.466-45.056 66.458 13.517 130.097 52.378 201.060 47.309 85.045-6.758 149.25-40.55 191.488-101.376-175.718-105.318-134.042-336.796 27.034-401.562-32.1-84.48-73.777-168.399-143.053-230.351l0.565 0.565zM428.995 715.52c-8.45 125.594 93.491 229.222 210.637 239.36 16.331-145.306-131.789-253.44-210.637-239.36z" />
<glyph unicode="&#xe91c;" glyph-name="linkedin" horiz-adv-x="964" d="M212.375-33.882h-196.687v633.397h196.687v-633.397zM113.912 685.914c-62.885 0-113.912 52.111-113.912 114.997 0 30.211 12.001 59.185 33.364 80.548s50.337 33.364 80.548 33.364c30.212 0 59.186-12.001 80.548-33.364s33.364-50.337 33.364-80.548c0-62.886-51.027-114.997-113.913-114.997zM948.501-33.882h-196.247v308.332c0 73.487-1.488 167.715-102.255 167.715-102.257 0-117.944-79.827-117.944-162.432v-313.615h-196.484v633.397h188.623v-86.4h2.744c26.259 49.773 90.401 102.291 186.085 102.291 199.054 0 235.646-131.091 235.646-301.351v-347.937h-0.169z" />
<glyph unicode="&#xe91d;" glyph-name="most-used" horiz-adv-x="1293" d="M382.653 900.716l-188.632-204.8-32.337 43.116c-21.558 26.947-64.674 32.337-97.011 10.779-26.947-26.947-32.337-70.063-10.779-97.011l80.842-102.4c10.779-16.168 32.337-26.947 48.505-26.947 0 0 0 0 5.389 0 16.168 0 37.726 5.389 48.505 21.558l242.526 258.695c26.947 26.947 21.558 70.063-5.389 97.011-21.558 26.947-64.674 26.947-91.621 0zM1185.684 792.926h-485.053c-37.726 0-64.674-32.337-64.674-64.674s32.337-64.674 64.674-64.674h485.053c37.726 0 64.674 32.337 64.674 64.674s-26.947 64.674-64.674 64.674zM382.653 361.768l-188.632-204.8-32.337 43.116c-21.558 26.947-64.674 32.337-97.011 10.779-26.947-21.558-32.337-64.674-10.779-97.011l80.842-102.4c10.779-10.779 32.337-21.558 53.895-21.558 0 0 0 0 5.389 0 16.168 0 37.726 5.389 48.505 21.558l242.526 258.695c26.947 26.947 21.558 70.063-5.389 97.011-26.947 21.558-70.063 21.558-97.011-5.389zM1040.168 253.979h-339.537c-37.726 0-64.674-32.337-64.674-64.674s32.337-64.674 64.674-64.674h344.926c37.726 0 64.674 32.337 64.674 64.674s-32.337 64.674-70.063 64.674z" />
<glyph unicode="&#xe91e;" glyph-name="notification" d="M49.112 309.878c-17.121 38.047-26.561 79.104-27.777 120.806-1.216 41.704 5.814 83.239 20.689 122.22s37.299 74.641 65.989 104.934c28.689 30.294 63.078 54.623 101.193 71.593s79.206 26.248 120.915 27.299c41.709 1.052 83.215-6.143 122.137-21.171s74.493-37.595 104.671-66.404c30.182-28.809 54.374-63.293 71.194-101.475l75.203-168.96 102.236-99.41c5.386-5.253 9.405-11.74 11.709-18.903 2.299-7.163 2.811-14.781 1.49-22.185-1.321-7.409-4.434-14.377-9.073-20.301-4.634-5.924-10.65-10.624-17.521-13.691l-597.626-266.097c-6.876-3.057-14.396-4.383-21.902-3.86s-14.772 2.872-21.16 6.851c-6.388 3.973-11.705 9.452-15.487 15.959-3.782 6.502-5.914 13.839-6.208 21.356l-5.53 142.541-75.141 168.899zM440.113-2.729c11.956-18.053 29.925-31.283 50.714-37.34s43.052-4.547 62.835 4.255c19.779 8.806 35.804 24.335 45.215 43.837 9.416 19.497 11.612 41.702 6.2 62.669l-164.964-73.421zM640.169 771.969c4.562 6.744 11.617 11.399 19.615 12.942 7.992 1.544 16.276-0.15 23.025-4.709 98.734-66.662 166.81-162.079 177.439-271.811 0.983-9.83 1.475-19.845 1.475-29.921 0-8.147-3.241-15.961-9.001-21.722s-13.573-8.999-21.719-8.999c-8.151 0-15.964 3.238-21.724 8.999s-8.996 13.575-8.996 21.722c-0.026 8.003-0.435 15.999-1.229 23.962-8.356 87.122-62.915 167.608-150.651 226.898-6.748 4.565-11.402 11.62-12.943 19.616-1.546 7.995 0.148 16.276 4.71 23.024v0zM670.275 924.648c2.109 3.443 4.874 6.437 8.141 8.81s6.968 4.079 10.895 5.021c3.922 0.942 7.997 1.1 11.986 0.466 3.983-0.634 7.808-2.047 11.249-4.159 151.020-92.529 281.395-233.779 290.98-485.56 0.154-4.036-0.486-8.060-1.889-11.844-1.403-3.789-3.538-7.26-6.282-10.22-2.744-2.964-6.047-5.356-9.713-7.040-3.671-1.684-7.634-2.632-11.668-2.785s-8.059 0.492-11.843 1.894c-3.789 1.403-7.26 3.533-10.22 6.277-2.964 2.744-5.356 6.047-7.040 9.713-1.684 3.671-2.632 7.634-2.785 11.668-8.602 225.854-122.941 350.578-261.673 435.611-6.938 4.258-11.899 11.094-13.798 19.007-1.905 7.914-0.584 16.259 3.661 23.202v-0.061z" />
<glyph unicode="&#xe91f;" glyph-name="phone" d="M884.526 133.473l-170.644 206.525c-8.069 9.759-19.61 16-32.195 17.408-12.58 1.408-25.221-2.13-35.246-9.861l-132.531-102.236c-27.041 9.293-80.439 34.729-129.75 100.367-49.283 65.833-58.677 124.369-59.884 152.719l135.254 98.544c10.249 7.441 17.201 18.578 19.384 31.053s-0.573 25.312-7.686 35.791l-150.238 221.726c-7.113 10.509-18.041 17.831-30.466 20.412s-25.366 0.217-36.074-6.59l-117.617-74.816c-9.546-7.179-16.124-17.612-18.488-29.32-2.454-11.963-57.227-295.832 132.642-549.343 165.658-221.030 405.841-269.891 472.55-279.45 9.748-1.398 15.78-1.966 17.382-2.099 11.899-1.029 23.757 2.376 33.295 9.564l104.796 91.924c9.569 8.33 15.503 20.076 16.532 32.722 1.029 12.641-2.924 25.19-11.018 34.959z" />
<glyph unicode="&#xe920;" glyph-name="search" d="M431.158 97.69c95.662 0.022 188.567 32.046 263.923 90.974l236.921-236.921 76.207 76.207-236.921 236.921c58.961 75.366 91.007 168.291 91.028 263.977 0 237.73-193.428 431.158-431.158 431.158s-431.158-193.428-431.158-431.158c0-237.731 193.428-431.159 431.158-431.159zM431.158 852.217c178.338 0 323.368-145.031 323.368-323.368 0-178.339-145.031-323.369-323.368-323.369s-323.368 145.031-323.368 323.369c0 178.338 145.031 323.368 323.368 323.368z" />
<glyph unicode="&#xe921;" glyph-name="send" d="M970.001 905.998c-5.279 5.254-11.947 8.891-19.223 10.485s-14.854 1.077-21.845-1.489l-860.443-312.889c-7.421-2.815-13.809-7.821-18.317-14.352s-6.923-14.281-6.923-22.217c0-7.937 2.414-15.685 6.923-22.217s10.897-11.537 18.317-14.352l335.965-134.151 247.964 248.747 55.148-55.147-249.139-249.136 134.542-335.963c2.901-7.282 7.913-13.517 14.399-17.914 6.485-4.392 14.143-6.736 21.976-6.73 7.902 0.165 15.57 2.719 21.993 7.327 6.428 4.608 11.304 11.054 13.989 18.489l312.889 860.443c2.662 6.919 3.305 14.454 1.855 21.725-1.456 7.271-4.949 13.979-10.069 19.341z" />
<glyph unicode="&#xe922;" glyph-name="settings" d="M605.179-63.995h-186.369c-11.677 0-23.004 3.988-32.102 11.31-9.099 7.316-15.421 17.526-17.921 28.933l-20.838 96.461c-27.799 12.18-54.157 27.412-78.592 45.414l-94.054-29.952c-11.132-3.548-23.145-3.185-34.042 1.034s-20.022 12.037-25.862 22.159l-93.389 161.331c-5.778 10.132-7.947 21.924-6.152 33.449 1.795 11.52 7.448 22.098 16.034 29.988l72.96 66.56c-3.318 30.152-3.318 60.576 0 90.727l-72.96 66.406c-8.598 7.897-14.258 18.48-16.054 30.014s0.381 23.337 6.172 33.474l93.184 161.434c5.84 10.122 14.966 17.941 25.862 22.16s22.909 4.584 34.042 1.034l94.054-29.952c12.493 9.216 25.498 17.818 38.912 25.6 12.954 7.27 26.266 13.875 39.885 19.763l20.89 96.359c2.487 11.407 8.798 21.622 17.887 28.951s20.409 11.331 32.084 11.343h186.369c11.674-0.012 22.994-4.015 32.082-11.343 9.093-7.329 15.401-17.544 17.889-28.951l21.094-96.41c27.781-12.18 54.124-27.412 78.541-45.414l94.106 29.952c11.126 3.537 23.127 3.166 34.012-1.053s20.004-12.030 25.841-22.141l93.184-161.434c11.878-20.838 7.782-47.206-9.882-63.437l-72.96-66.56c3.318-30.151 3.318-60.576 0-90.727l72.96-66.56c17.664-16.282 21.76-42.598 9.882-63.437l-93.184-161.434c-5.842-10.122-14.966-17.94-25.861-22.159-10.9-4.219-22.912-4.582-34.043-1.034l-94.054 29.952c-24.417-17.987-50.76-33.203-78.541-45.363l-21.094-96.205c-2.499-11.397-8.812-21.601-17.9-28.918-9.088-7.322-20.403-11.315-32.072-11.325zM287.738 231.48l41.984-30.72c9.472-6.963 19.302-13.363 29.542-19.2 9.626-5.581 19.456-10.598 29.645-15.155l47.77-20.941 23.398-107.059h103.937l23.398 107.11 47.77 20.941c20.838 9.216 40.653 20.634 59.034 34.099l41.984 30.72 104.55-33.28 51.968 90.010-81.050 73.882 5.734 51.814c2.56 22.682 2.56 45.569 0 68.199l-5.734 51.814 81.101 74.035-52.019 90.061-104.499-33.28-42.035 30.72c-18.391 13.533-38.185 25.051-59.034 34.355l-47.77 20.941-23.398 107.059h-103.937l-23.552-107.11-47.616-20.89c-20.88-9.145-40.679-20.581-59.034-34.099l-42.035-30.72-104.448 33.28-52.070-90.317 81.050-73.779-5.734-51.866c-2.56-22.682-2.56-45.569 0-68.199l5.734-51.814-81.050-73.882 51.968-90.010 104.448 33.28zM511.789 243.205c-54.316 0-106.408 21.576-144.815 59.986-38.408 38.405-59.985 90.501-59.985 144.815 0 54.317 21.577 106.408 59.985 144.816s90.499 59.984 144.815 59.984c54.319 0 106.41-21.577 144.815-59.984 38.41-38.408 59.986-90.499 59.986-144.816 0-54.314-21.576-106.41-59.986-144.815-38.405-38.41-90.496-59.986-144.815-59.986zM511.789 550.406c-20.052-0.020-39.657-5.927-56.382-16.989s-29.835-26.789-37.703-45.234c-7.867-18.444-10.147-38.793-6.555-58.519 3.592-19.727 12.897-37.97 26.761-52.454 13.863-14.49 31.675-24.586 51.226-29.046 19.551-4.454 39.98-3.072 58.75 3.978 18.775 7.045 35.067 19.451 46.853 35.676 11.786 16.22 18.55 35.548 19.451 55.578v-20.48 25.089c0 27.159-10.788 53.204-29.993 72.408s-45.251 29.992-72.408 29.992z" />
<glyph unicode="&#xe923;" glyph-name="sign-language" horiz-adv-x="983" d="M326.717 811.798c49.113 32.928 105.141 49.92 162.046 49.152 155.062-2.112 281.203-129.907 281.203-284.909 0-57.947-18.162-114.451-52.548-163.41-5.857-8.335-8.163-18.657-6.406-28.692 1.753-10.035 7.418-18.964 15.757-24.818 8.335-5.857 18.653-8.163 28.688-6.41 10.035 1.757 18.964 7.422 24.822 15.757 43.446 61.981 66.486 133.751 66.486 207.573-0.016 95.106-37.474 186.382-104.276 254.077s-157.573 106.369-252.67 107.65c-72.536 0.96-143.75-20.544-205.881-62.189-8.407-5.694-14.217-14.486-16.157-24.453s0.144-20.296 5.8-28.729c5.656-8.433 14.422-14.283 24.379-16.269s20.297 0.052 28.756 5.67v0zM971.837-34.021c-7.201-7.197-16.966-11.239-27.148-11.239s-19.948 4.043-27.148 11.239l-267.862 267.862c-32.997-41.066-57.238-88.453-71.229-139.239-2.15-7.778-4.878-15.38-8.163-22.753-15.528-34.771-40.767-64.324-72.684-85.098s-69.153-31.896-107.238-32.018h-1.21c-106.118 0.651-193.536 89.817-195.149 195.838 0.192 66.875 54.509 122.88 121.363 122.88 5.4-0.020 10.749 1.049 15.729 3.133 4.98 2.089 9.49 5.157 13.263 9.019 3.531 3.547 6.314 7.762 8.184 12.403s2.789 9.609 2.703 14.615c-0.112 5.566-1.434 11.043-3.874 16.048-2.44 5.009-5.94 9.425-10.257 12.943-19.583 15.897-35.371 35.967-46.213 58.745-10.842 22.774-16.464 47.682-16.456 72.909v109.305c0 0.249 0.653 14.304 1.459 21.12l-64.819 64.666c-9.598-27.855-14.78-57.040-15.36-86.496-0.186-10.061-4.314-19.646-11.495-26.695-7.182-7.050-16.842-10.998-26.905-10.994h-0.768c-5.048 0.098-10.027 1.192-14.651 3.219s-8.804 4.945-12.299 8.588c-3.496 3.643-6.238 7.941-8.071 12.645s-2.72 9.724-2.61 14.772c1.056 49.75 12.391 98.745 33.293 143.904l-144.922 144.921c-6.995 7.243-10.865 16.942-10.778 27.011s4.126 19.7 11.246 26.819c7.12 7.12 16.751 11.158 26.819 11.246s19.768-3.783 27.011-10.778l906.24-906.239c7.197-7.201 11.244-16.97 11.244-27.148 0-10.183-4.047-19.952-11.244-27.152v0zM595.112 288.408l-239.864 239.866v-55.009c0.011-13.836 3.108-27.492 9.067-39.981 5.959-12.485 14.628-23.482 25.378-32.19 12.959-10.555 23.462-23.81 30.774-38.838 7.315-15.028 11.268-31.47 11.579-48.177 0.315-15.213-2.433-30.335-8.081-44.466-5.644-14.127-14.074-26.98-24.787-37.786-10.962-11.108-24.014-19.935-38.405-25.973s-29.835-9.167-45.441-9.204c-24.634 0-44.563-21.447-44.563-46.080 1.152-64.434 54.259-118.637 118.829-119.038h0.73c23.275 0.102 46.020 6.926 65.509 19.653 19.485 12.726 34.882 30.81 44.335 52.077 1.724 3.863 3.154 7.848 4.28 11.923 17.527 63.545 48.435 122.606 90.661 173.224v0zM674.91 498.319c10.822 25.162 16.38 52.271 16.339 79.661-0.057 34.571-8.786 68.576-25.391 98.899s-40.55 55.996-69.644 74.667c-29.098 18.671-62.415 29.743-96.899 32.202-34.48 2.459-69.030-3.773-100.483-18.126-9.148-4.3-16.232-12.033-19.715-21.523s-3.083-19.97 1.112-29.166c4.196-9.197 11.848-16.368 21.297-19.959s19.935-3.31 29.176 0.78c19.755 9.017 41.452 12.936 63.111 11.398 21.656-1.538 42.586-8.483 60.862-20.199 18.28-11.717 33.333-27.832 43.774-46.868s15.942-40.389 15.999-62.102c0.029-16.985-3.412-33.798-10.121-49.4-4.010-9.359-4.141-19.931-0.36-29.385 3.781-9.458 11.162-17.023 20.521-21.037 4.772-2.060 9.916-3.117 15.11-3.109 7.52-0.004 14.877 2.204 21.152 6.345s11.198 10.031 14.16 16.945v-0.020z" />
<glyph unicode="&#xe924;" glyph-name="social" horiz-adv-x="989" d="M136.828 789.532c0 36.289 14.416 71.092 40.076 96.752s60.463 40.076 96.752 40.076c36.289 0 71.092-14.416 96.75-40.076 25.66-25.66 40.077-60.463 40.077-96.752s-14.417-71.091-40.077-96.752c-25.659-25.66-60.462-40.076-96.75-40.076s-71.092 14.416-96.752 40.076c-25.66 25.66-40.076 60.463-40.076 96.752v0zM273.655 857.946c-18.145 0-35.546-7.208-48.376-20.038s-20.038-30.231-20.038-48.376c0-18.144 7.208-35.546 20.038-48.376s30.231-20.038 48.376-20.038c18.145 0 35.546 7.208 48.376 20.038s20.038 30.232 20.038 48.376c0 18.145-7.208 35.546-20.038 48.376s-30.231 20.038-48.376 20.038v0zM600.604 681.166c-14.336 10.933-26.366 24.59-35.406 40.188-9.036 15.597-14.904 32.827-17.263 50.699s-1.162 36.034 3.52 53.442c4.679 17.408 12.758 33.72 23.76 47.997 11.006 14.278 24.724 26.239 40.367 35.199 15.646 8.959 32.902 14.739 50.787 17.007s36.038 0.98 53.425-3.79c17.383-4.77 33.654-12.929 47.874-24.006 28.001-22.399 46.091-54.895 50.377-90.496s-5.576-71.461-27.461-99.865c-21.885-28.404-54.050-47.082-89.565-52.014-35.519-4.933-71.549 4.275-100.348 25.64h-0.067zM684.134 857.947c-18.142 0-35.543-7.208-48.375-20.038-12.828-12.83-20.039-30.231-20.039-48.376s7.21-35.546 20.039-48.376c12.832-12.83 30.233-20.038 48.375-20.038 18.146 0 35.547 7.208 48.379 20.038 12.828 12.83 20.035 30.231 20.035 48.376s-7.207 35.546-20.035 48.376c-12.832 12.83-30.233 20.038-48.379 20.038v0zM102.621 584.291h182.665c-7.526-21.412-11.631-44.47-11.631-68.414h-171.034c-9.072 0-17.773-3.605-24.188-10.018-6.415-6.416-10.019-15.116-10.019-24.188 0-55.896 22.235-97.354 57.331-125.542 16.146-12.998 35.507-23.464 57.399-31.126-16.077-17.090-28.466-37.302-36.396-59.385-22.964 9.227-44.466 21.741-63.83 37.15-51.447 41.391-82.918 102.552-82.918 178.903 0 27.214 10.812 53.319 30.057 72.563s45.347 30.056 72.564 30.056v0zM360.409 584.291c-18.144-31.444-23.054-68.806-13.65-103.872 9.406-35.063 32.354-64.957 63.798-83.099 31.444-18.146 68.809-23.058 103.872-13.651 35.067 9.403 64.957 32.351 83.103 63.795 18.142 31.447 23.054 68.809 13.651 103.876-9.407 35.063-32.355 64.956-63.799 83.1s-68.809 23.055-103.872 13.65c-35.067-9.405-64.957-32.353-83.103-63.799v0zM463.579 582.582c10.021 2.263 20.427 2.249 30.445-0.046s19.389-6.811 27.426-13.213c8.040-6.405 14.537-14.53 19.015-23.782 4.477-9.248 6.818-19.385 6.854-29.664-0.007-12.871-3.644-25.48-10.494-36.377-6.85-10.9-16.635-19.643-28.234-25.229-11.596-5.586-24.534-7.786-37.327-6.349-12.789 1.437-24.919 6.451-34.985 14.474-10.071 8.019-17.669 18.718-21.931 30.865s-5.011 25.247-2.157 37.8c2.85 12.553 9.184 24.046 18.277 33.16 9.089 9.114 20.568 15.48 33.114 18.361zM832.049 356.13c-16.144-12.998-35.508-23.464-57.4-31.126 16.052-17.097 28.418-37.309 36.331-59.385 23.259 9.509 44.809 21.892 63.898 37.15 51.447 41.391 82.916 102.552 82.916 178.903 0 27.214-10.812 53.319-30.056 72.563s-45.346 30.056-72.563 30.056h-182.664c7.525-21.412 11.628-44.47 11.628-68.414h171.036c9.071 0 17.772-3.605 24.188-10.018 6.416-6.416 10.018-15.116 10.018-24.188 0-55.896-22.235-97.354-57.33-125.542zM649.933 310.636c27.214 0 53.319-10.812 72.563-30.056 19.244-19.248 30.056-45.349 30.056-72.566 0-76.348-31.401-137.509-82.916-178.9-50.695-40.706-118.699-60.547-190.739-60.547s-140.043 19.841-190.737 60.547c-51.447 41.391-82.918 102.552-82.918 178.9-0.036 13.489 2.594 26.85 7.738 39.315 5.144 12.468 12.702 23.796 22.238 33.333 9.536 9.534 20.863 17.094 33.33 22.235 12.467 5.145 25.827 7.775 39.314 7.74h342.070zM649.933 242.222h-342.070c-9.072 0-17.773-3.605-24.188-10.018-6.415-6.416-10.019-15.116-10.019-24.191 0-55.893 22.235-97.351 57.331-125.539 35.987-28.87 87.706-45.494 147.91-45.494s111.927 16.624 147.912 45.494c35.095 28.188 57.33 69.646 57.33 125.539 0 9.075-3.605 17.775-10.018 24.191-6.416 6.412-15.116 10.018-24.188 10.018v0z" />
<glyph unicode="&#xe925;" glyph-name="twitter" horiz-adv-x="1170" d="M1023.729 776.463c49.174 29.399 85.965 75.69 103.512 130.231-46.204-27.419-96.768-46.733-149.482-57.107-35.562 37.613-82.498 62.487-133.588 70.788s-103.49-0.432-149.127-24.853c-45.635-24.421-81.972-63.174-103.409-110.285s-26.783-99.966-15.214-150.415c-93.593 4.699-185.152 29.026-268.733 71.404s-157.318 101.856-216.423 174.576c-30.058-51.845-39.256-113.189-25.725-171.57s48.776-109.424 98.576-142.762c-37.374 1.202-73.918 11.32-106.587 29.513v-2.962c0.010-54.362 18.823-107.047 53.248-149.12s82.341-70.945 135.625-81.719c-34.666-9.431-71.028-10.82-106.313-4.059 15.071-46.756 44.363-87.64 83.79-116.946 39.425-29.303 87.017-45.57 136.133-46.528-83.392-65.448-186.378-100.944-292.388-100.769-18.816 0-37.577 1.097-56.229 3.233 107.652-69.171 232.944-105.889 360.905-105.765 88.133-0.607 175.509 16.311 257.051 49.759s155.62 82.768 217.945 145.093c62.318 62.323 111.631 136.409 145.072 217.953s50.352 168.921 49.737 257.055c0 10.203-0.219 20.352-0.709 30.446 46.102 33.319 85.892 74.597 117.504 121.893-42.957-19.038-88.517-31.538-135.168-37.083v0z" />
<glyph unicode="&#xe926;" glyph-name="user" horiz-adv-x="970" d="M485.053 960.007c-53.297 0-105.397-15.804-149.711-45.415s-78.854-71.696-99.25-120.936c-20.396-49.24-25.732-103.422-15.335-155.695s36.063-100.288 73.75-137.975c37.686-37.686 85.702-63.352 137.975-73.749 52.273-10.396 106.455-5.061 155.694 15.334s91.325 54.935 120.934 99.25c29.615 44.315 45.417 96.415 45.417 149.711 0 71.469-28.392 140.010-78.929 190.547-50.532 50.536-119.075 78.927-190.545 78.927v0zM485.053 528.849c-31.978 0-63.238 9.483-89.827 27.249s-47.313 43.018-59.55 72.562c-12.237 29.544-15.439 62.053-9.201 93.417s21.638 60.173 44.25 82.785c22.612 22.612 51.422 38.011 82.785 44.25s63.873 3.036 93.42-9.201c29.54-12.237 54.795-32.961 72.558-59.55 17.769-26.588 27.249-57.848 27.249-89.827 0-42.881-17.036-84.006-47.357-114.328s-71.446-47.356-114.327-47.356v0zM970.105-63.995v53.895c0 100.056-39.747 196.015-110.5 266.768-70.748 70.748-166.707 110.495-266.763 110.495h-215.579c-100.057 0-196.015-39.747-266.765-110.495-70.75-70.753-110.498-166.713-110.498-266.768v-53.895h107.789v53.895c0 71.47 28.391 140.013 78.927 190.55 50.536 50.532 119.078 78.923 190.546 78.923h215.579c71.47 0 140.013-28.392 190.545-78.923 50.537-50.537 78.929-119.080 78.929-190.55v-53.895h107.789z" />
<glyph unicode="&#xe927;" glyph-name="close-round" horiz-adv-x="1081" d="M733.11 638c0 4.889-3.999 8.889-8.892 8.889l-73.33-0.333-110.445-131.666-110.333 131.556-73.444 0.333c-4.889 0-8.889-3.889-8.889-8.889 0-2.111 0.778-4.111 2.111-5.778l144.555-172.223-144.555-172.111c-1.343-1.627-2.088-3.669-2.111-5.78 0-4.887 4-8.886 8.889-8.886l73.444 0.33 110.333 131.669 110.331-131.555 73.335-0.336c4.887 0 8.886 3.891 8.886 8.892 0 2.111-0.774 4.107-2.111 5.774l-144.333 172.114 144.555 172.222c1.337 1.555 2.002 3.666 2.002 5.778zM540.444 960c-274.889 0-497.778-222.889-497.778-497.778 0-274.887 222.889-497.778 497.778-497.778 274.887 0 497.778 222.891 497.778 497.778 0 274.889-222.891 497.778-497.778 497.778zM540.444 48.89c-228.222 0-413.333 185.111-413.333 413.332s185.111 413.333 413.333 413.333c228.221 0 413.332-185.111 413.332-413.333s-185.111-413.332-413.332-413.332z" />
<glyph unicode="&#xe928;" glyph-name="counter" horiz-adv-x="1280" d="M1239.518 362.667c10.825 0 20.19-4.224 28.1-12.668 7.906-8.444 11.861-18.445 11.861-29.999v-85.333c0-11.554-3.955-21.555-11.861-29.999-7.91-8.444-17.276-12.668-28.1-12.668h-39.957v-170.667c0-24-7.701-44.224-23.104-60.668s-34.342-24.666-56.819-24.666h-1038.986c-22.478 0-41.418 8.222-56.819 24.666s-23.102 36.668-23.102 60.668v853.333c0 24 7.701 44.222 23.102 60.667s34.341 24.667 56.819 24.667h1038.986c22.477 0 41.417-8.222 56.819-24.667s23.104-36.667 23.104-60.667v-170.667h39.957c10.825 0 20.19-4.222 28.1-12.667 7.906-8.444 11.861-18.444 11.861-30v-85.333c0-11.555-3.955-21.556-11.861-30-7.91-8.445-17.276-12.667-28.1-12.667h-39.957v-170.667h39.957zM400.339 618.667c0 23.111-7.7 43.111-23.102 60s-34.342 25.333-56.82 25.333h-79.922c-21.646 0-40.377-8.445-56.195-25.333s-23.727-36.889-23.727-60v-341.333c0-24 7.701-44.224 23.102-60.668s34.342-24.666 56.82-24.666h79.922c22.478 0 41.418 8.222 56.82 24.666s23.102 36.668 23.102 60.668v341.333zM720.026 661.333c0 11.555-3.955 21.556-11.861 30-7.91 8.445-17.276 12.667-28.1 12.667-10.82 0-20.186-4.222-28.096-12.667s-11.861-18.444-11.861-30v-170.667c0-11.554-3.955-21.555-11.866-29.999s-17.276-12.668-28.096-12.668c-10.825 0-20.19 4.224-28.1 12.668-7.906 8.444-11.861 18.445-11.861 29.999v170.667c0 11.555-3.955 21.556-11.866 30-7.906 8.445-17.271 12.667-28.096 12.667s-20.19-4.222-28.096-12.667c-7.91-8.444-11.866-18.444-11.866-30v-213.333c0-23.113 7.701-43.11 23.104-59.998 15.403-16.892 34.342-25.335 56.819-25.335h79.923v-128c0-11.554 3.951-21.555 11.861-29.999s17.276-12.668 28.096-12.668c10.825 0 20.19 4.224 28.1 12.668 7.906 8.444 11.861 18.445 11.861 29.999v426.667zM1039.714 704h-79.923v-42.667c0-11.555-3.951-21.556-11.861-30s-17.276-12.667-28.096-12.667c-10.825 0-20.19 4.222-28.1 12.667-7.906 8.444-11.861 18.444-11.861 30v42.667h-79.923v-85.333c0-24 7.701-44.222 23.104-60.667 15.398-16.444 34.338-24.666 56.819-24.666h79.919c22.481 0 41.421 8.222 56.819 24.666 15.403 16.445 23.104 36.667 23.104 60.667v85.333zM1039.714 362.667c0 24-7.701 44.224-23.104 60.668-15.398 16.444-34.338 24.666-56.819 24.666h-79.919c-22.481 0-41.421-8.222-56.819-24.666-15.403-16.444-23.104-36.668-23.104-60.668v-170.667h239.765v170.667zM879.872 234.667v85.333c0 11.554 3.955 21.555 11.861 29.999 7.91 8.444 17.276 12.668 28.1 12.668 10.82 0 20.186-4.224 28.096-12.668s11.861-18.445 11.861-29.999v-85.333c0-11.554-3.951-21.555-11.861-29.999s-17.276-12.668-28.096-12.668c-10.825 0-20.19 4.224-28.1 12.668-7.906 8.444-11.861 18.445-11.861 29.999zM280.456 277.333c-10.823 0-20.189 4.224-28.098 12.668s-11.863 18.445-11.863 29.999v256c0 11.555 3.954 21.556 11.863 30s17.275 12.667 28.098 12.667c10.823 0 20.189-4.222 28.097-12.667s11.863-18.444 11.863-30v-256c0-11.554-3.954-21.555-11.863-29.999s-17.274-12.668-28.097-12.668z" />
<glyph unicode="&#xe929;" glyph-name="favourite-fill" d="M260.096 894.464c-137.216 0-249.856-110.592-249.856-247.808 0-110.592 43.008-372.736 475.136-638.976 8.192-4.096 16.384-8.192 26.624-8.192 8.192 0 18.432 2.048 26.624 8.192 432.128 266.24 475.136 528.384 475.136 638.976 0 137.216-112.64 247.808-251.904 247.808s-249.856-149.504-249.856-149.504-112.64 149.504-251.904 149.504z" />
<glyph unicode="&#xe92a;" glyph-name="play" d="M178.176-53.76v1003.52l667.648-501.76-667.648-501.76z" />
<glyph unicode="&#xe92b;" glyph-name="channels" d="M512 949.76c-276.48 0-501.76-225.28-501.76-501.76s225.28-501.76 501.76-501.76 501.76 225.28 501.76 501.76-225.28 501.76-501.76 501.76zM667.648 493.056h-311.296c14.336 186.368 108.544 303.104 155.648 350.208 47.104-47.104 141.312-163.84 155.648-350.208zM389.12 839.168c-55.296-73.728-114.688-188.416-124.928-346.112h-159.744c18.432 163.84 133.12 299.008 284.672 346.112zM104.448 402.944h161.792c10.24-157.696 69.632-272.384 124.928-346.112-153.6 47.104-268.288 182.272-286.72 346.112zM356.352 402.944h311.296c-14.336-186.368-108.544-303.104-155.648-350.208-47.104 47.104-141.312 163.84-155.648 350.208zM634.88 56.832c55.296 73.728 114.688 188.416 124.928 346.112h161.792c-20.48-163.84-135.168-299.008-286.72-346.112zM759.808 493.056c-10.24 157.696-69.632 272.384-124.928 346.112 153.6-47.104 268.288-182.272 284.672-346.112h-159.744z" />
<glyph unicode="&#xe92c;" glyph-name="download" d="M835.584-53.76h-647.168c-86.016 0-155.648 69.632-155.648 153.6v215.040c0 26.624 20.48 47.104 47.104 47.104s47.104-20.48 47.104-47.104v-215.040c0-32.768 26.624-59.392 59.392-59.392h645.12c32.768 0 59.392 26.624 59.392 59.392v215.040c0 26.624 20.48 47.104 47.104 47.104s47.104-20.48 47.104-47.104v-215.040c4.096-83.968-65.536-153.6-149.504-153.6zM512 212.48c-6.144 0-12.288 2.048-18.432 4.096v0c0 0 0 0 0 0-6.144 2.048-10.24 6.144-14.336 10.24 0 0 0 0 0 0s0 0 0 0v0c0 0 0 0 0 0l-215.040 212.992c-18.432 18.432-18.432 49.152 0 67.584s49.152 18.432 67.584 0l133.12-133.12v528.384c0 26.624 20.48 47.104 47.104 47.104s47.104-20.48 47.104-47.104v-526.336l133.12 133.12c18.432 18.432 49.152 18.432 67.584 0s18.432-49.152 0-67.584l-215.040-215.040c0 0 0 0 0 0v0c0 0 0 0 0 0s0 0 0 0c-4.096-4.096-10.24-8.192-14.336-10.24-6.144-2.048-12.288-4.096-18.432-4.096z" />
<glyph unicode="&#xe92d;" glyph-name="faq" d="M512 241.152c-24.576 0-45.056-20.48-45.056-45.056v0c0-24.576 20.48-45.056 45.056-45.056s45.056 20.48 45.056 45.056v0c0 24.576-20.48 45.056-45.056 45.056zM512 949.76c-276.48 0-501.76-225.28-501.76-501.76s225.28-501.76 501.76-501.76c276.48 0 501.76 225.28 501.76 501.76s-225.28 501.76-501.76 501.76zM512 38.4c-227.328 0-409.6 184.32-409.6 409.6s184.32 409.6 409.6 409.6 409.6-184.32 409.6-409.6-182.272-409.6-409.6-409.6zM512 747.008c-90.112 0-174.080-59.392-196.608-143.36-6.144-24.576 8.192-49.152 32.768-55.296s49.152 8.192 55.296 32.768c12.288 43.008 55.296 77.824 108.544 77.824 61.44 0 106.496-47.104 106.496-102.4 0-26.624-14.336-38.912-55.296-67.584-32.768-22.528-96.256-61.44-96.256-139.264 0-24.576 20.48-45.056 45.056-45.056s45.056 20.48 45.056 45.056c0 22.528 14.336 34.816 55.296 63.488 34.816 24.576 96.256 63.488 96.256 143.36 2.048 104.448-88.064 190.464-196.608 190.464z" />
<glyph unicode="&#xe92e;" glyph-name="fees" d="M411.648 599.552c6.144 6.144 14.336 12.288 22.528 14.336 8.192 4.096 16.384 6.144 26.624 6.144h206.848c18.432 0 34.816 16.384 34.816 34.816s-16.384 34.816-34.816 34.816h-120.832v69.632c0 18.432-16.384 34.816-34.816 34.816s-34.816-16.384-34.816-34.816v-69.632h-16.384c-18.432 0-36.864-4.096-53.248-10.24s-32.768-16.384-45.056-30.72c-12.288-12.288-22.528-28.672-30.72-45.056-6.144-16.384-10.24-34.816-10.24-53.248s4.096-36.864 10.24-53.248c6.144-16.384 16.384-32.768 30.72-45.056 12.288-12.288 28.672-22.528 45.056-30.72 16.384-6.144 34.816-10.24 53.248-10.24h104.448c8.192 0 18.432-2.048 26.624-6.144s16.384-8.192 22.528-14.336c6.144-6.144 12.288-14.336 14.336-22.528s6.144-16.384 6.144-26.624c0-8.192-2.048-18.432-6.144-26.624s-8.192-16.384-14.336-22.528c-6.144-6.144-14.336-12.288-22.528-14.336s-16.384-6.144-26.624-6.144h-208.896c-18.432 0-34.816-16.384-34.816-34.816s16.384-34.816 34.816-34.816h120.832v-69.632c0-18.432 16.384-34.816 34.816-34.816s34.816 16.384 34.816 34.816v69.632h16.384c18.432 0 36.864 4.096 53.248 10.24s32.768 16.384 45.056 30.72 22.528 28.672 30.72 45.056c6.144 16.384 10.24 34.816 10.24 53.248s-4.096 36.864-10.24 53.248c-6.144 16.384-16.384 32.768-30.72 45.056-12.288 12.288-28.672 22.528-45.056 30.72-16.384 6.144-34.816 10.24-53.248 10.24h-104.448c-8.192 0-18.432 2.048-26.624 6.144s-16.384 8.192-22.528 14.336c-6.144 6.144-12.288 14.336-14.336 22.528-4.096 8.192-6.144 16.384-6.144 26.624 0 8.192 2.048 18.432 6.144 26.624 4.096 10.24 10.24 16.384 16.384 22.528zM512 949.76c-276.48 0-501.76-225.28-501.76-501.76s225.28-501.76 501.76-501.76c276.48 0 501.76 225.28 501.76 501.76s-225.28 501.76-501.76 501.76zM512 15.872c-237.568 0-432.128 194.56-432.128 432.128s194.56 432.128 432.128 432.128c237.568 0 432.128-192.512 432.128-432.128 0-237.568-194.56-432.128-432.128-432.128z" />
<glyph unicode="&#xe92f;" glyph-name="location-pin" d="M512 695.808c-94.208 0-172.032-77.824-172.032-172.032s77.824-172.032 172.032-172.032c94.208 0 172.032 77.824 172.032 172.032 0 96.256-77.824 172.032-172.032 172.032zM512 443.904c-45.056 0-81.92 36.864-81.92 81.92s36.864 81.92 81.92 81.92c45.056 0 81.92-36.864 81.92-81.92 0-47.104-36.864-81.92-81.92-81.92zM512 949.76c-235.52 0-425.984-192.512-425.984-428.032 0-288.768 333.824-575.488 425.984-575.488s425.984 284.672 425.984 575.488c0 235.52-190.464 428.032-425.984 428.032zM512 38.4c-61.44 18.432-333.824 247.808-333.824 483.328 0 184.32 149.504 335.872 333.824 335.872s333.824-151.552 333.824-337.92c0-233.472-272.384-462.848-333.824-481.28z" />
<glyph unicode="&#xe930;" glyph-name="payment" d="M512-53.76c-4.096 0-8.192 0-12.288 2.048-307.2 86.016-444.416 491.52-444.416 753.664 0 16.384 10.24 32.768 24.576 40.96l409.6 202.752c12.288 6.144 28.672 6.144 40.96 0l409.6-202.752c16.384-8.192 24.576-22.528 24.576-40.96 0-260.096-137.216-667.648-444.416-753.664 0-2.048-4.096-2.048-8.192-2.048zM147.456 673.28c10.24-258.048 147.456-563.2 364.544-632.832 217.088 69.632 354.304 374.784 364.544 632.832l-364.544 180.224-364.544-180.224zM460.8 300.544c-12.288 0-22.528 4.096-32.768 12.288l-102.4 100.352c-18.432 18.432-18.432 47.104 0 63.488 18.432 18.432 47.104 18.432 63.488 0l69.632-69.632 174.080 172.032c18.432 18.432 47.104 18.432 65.536 0s18.432-47.104 0-63.488l-204.8-202.752c-10.24-8.192-20.48-12.288-32.768-12.288z" />
<glyph unicode="&#xe931;" glyph-name="star" d="M815.104-31.232c-6.144 0-14.336 2.048-20.48 4.096l-282.624 143.36-282.624-143.36c-16.384-8.192-34.816-6.144-49.152 6.144-14.336 10.24-20.48 28.672-16.384 47.104l69.632 282.624-210.944 235.52c-12.288 12.288-14.336 30.72-8.192 47.104s22.528 26.624 38.912 28.672l303.104 22.528 114.688 258.048c8.192 16.384 24.576 26.624 40.96 26.624v0c18.432 0 34.816-10.24 40.96-26.624l114.688-256 303.104-22.528c16.384-2.048 32.768-12.288 38.912-28.672s4.096-34.816-8.192-47.104l-210.944-237.568 69.632-282.624c4.096-16.384-2.048-34.816-16.384-47.104-8.192-6.144-18.432-10.24-28.672-10.24zM151.552 538.112l165.888-186.368c10.24-12.288 14.336-26.624 10.24-40.96l-51.2-210.944 215.040 108.544c12.288 6.144 28.672 6.144 40.96 0l215.040-108.544-51.2 208.896c-4.096 14.336 0 30.72 10.24 40.96l165.888 186.368-237.568 18.432c-16.384 2.048-30.72 12.288-38.912 26.624l-83.968 190.464-86.016-188.416c-6.144-14.336-20.48-24.576-38.912-26.624l-235.52-18.432z" />
<glyph unicode="&#xe932;" glyph-name="support" d="M512-53.76c-276.48 0-501.76 225.28-501.76 501.76s225.28 501.76 501.76 501.76 501.76-225.28 501.76-501.76v-65.536c0-32.768-10.24-65.536-26.624-94.208-32.768-51.2-88.064-81.92-147.456-81.92-61.44 0-114.688 30.72-147.456 79.872-45.056-49.152-108.544-79.872-178.176-79.872-133.12 0-241.664 108.544-241.664 241.664s108.544 241.664 241.664 241.664c133.12 0 241.664-108.544 241.664-241.664v-65.536c0-47.104 38.912-83.968 83.968-83.968 28.672 0 55.296 14.336 71.68 38.912 8.192 14.336 12.288 28.672 12.288 45.056v65.536c0 227.328-184.32 409.6-409.6 409.6-227.328 0-409.6-184.32-409.6-409.6 0-227.328 184.32-409.6 409.6-409.6 83.968 0 165.888 24.576 235.52 73.728 20.48 14.336 49.152 10.24 63.488-12.288 14.336-20.48 10.24-49.152-12.288-63.488-86.016-59.392-186.368-90.112-288.768-90.112zM512 597.504c-81.92 0-149.504-67.584-149.504-149.504s67.584-149.504 149.504-149.504 149.504 67.584 149.504 149.504-67.584 149.504-149.504 149.504z" />
<glyph unicode="&#xe933;" glyph-name="pencil" d="M993.28 710.144l-223.232 227.328c-8.192 8.192-18.432 12.288-28.672 12.288s-20.48-4.096-28.672-12.288l-135.168-139.264c0 0 0 0 0 0s0 0 0 0l-520.192-530.432c-6.144-6.144-10.24-14.336-10.24-24.576l-26.624-251.904c-2.048-12.288 2.048-24.576 12.288-32.768 8.192-8.192 18.432-12.288 28.672-12.288 2.048 0 2.048 0 4.096 0l247.808 26.624c10.24 0 18.432 6.144 24.576 12.288l655.36 669.696c14.336 16.384 14.336 40.96 0 55.296zM288.768 50.688l-184.32-20.48 18.432 190.464 481.28 491.52 165.888-169.984-481.28-491.52zM827.392 601.6l-165.888 169.984 79.872 81.92 165.888-169.984-79.872-81.92z" />
<glyph unicode="&#xe934;" glyph-name="star-fill" d="M815.104-31.232c-6.144 0-14.336 2.048-20.48 4.096l-282.624 143.36-282.624-143.36c-16.384-8.192-34.816-6.144-49.152 6.144-14.336 10.24-20.48 28.672-16.384 47.104l69.632 282.624-210.944 235.52c-12.288 12.288-14.336 30.72-8.192 47.104s22.528 26.624 38.912 28.672l303.104 22.528 114.688 258.048c8.192 16.384 24.576 26.624 40.96 26.624v0c18.432 0 34.816-10.24 40.96-26.624l114.688-256 303.104-22.528c16.384-2.048 32.768-12.288 38.912-28.672s4.096-34.816-8.192-47.104l-210.944-237.568 69.632-282.624c4.096-16.384-2.048-34.816-16.384-47.104-8.192-6.144-18.432-10.24-28.672-10.24z" />
<glyph unicode="&#xe935;" glyph-name="time" d="M512-53.76c-276.48 0-501.76 225.28-501.76 501.76s225.28 501.76 501.76 501.76 501.76-225.28 501.76-501.76-225.28-501.76-501.76-501.76zM512 880.128c-237.568 0-432.128-194.56-432.128-432.128s194.56-432.128 432.128-432.128 432.128 194.56 432.128 432.128-194.56 432.128-432.128 432.128zM667.648 257.536c-8.192 0-18.432 4.096-24.576 10.24l-155.648 155.648c-6.144 6.144-10.24 16.384-10.24 24.576v260.096c0 18.432 16.384 34.816 34.816 34.816s34.816-16.384 34.816-34.816v-245.76l145.408-145.408c14.336-14.336 14.336-34.816 0-49.152-6.144-6.144-16.384-10.24-24.576-10.24z" />
<glyph unicode="&#xe936;" glyph-name="pdf" horiz-adv-x="793" d="M650.735 444.697c-9.91 9.91-26.426 16.516-39.639 19.819-36.335 9.91-75.974 13.213-112.31 13.213-3.303 0-6.606 0-9.91 3.303s-6.606 3.303-9.91 6.606l-79.277 102.4c-3.303 6.606-3.303 9.91-6.606 13.213 0 3.303 0 6.606 3.303 9.91 13.213 29.729 19.819 62.761 19.819 95.794 0 29.729-3.303 56.155-9.91 82.581-3.303 6.606-6.606 13.213-13.213 16.516s-13.213 6.606-19.819 6.606c-6.606 0-13.213 0-19.819-3.303s-13.213-6.606-16.516-13.213c-9.91-3.303-16.516-19.819-16.516-36.335-6.606-52.852 0-105.703 26.426-151.948 3.303-9.91 6.606-16.516 0-26.426-16.516-42.942-36.335-82.581-56.155-125.523-3.303-9.91-9.91-13.213-19.819-16.516-29.729-9.91-59.458-26.426-85.884-49.548-26.426-19.819-46.245-46.245-59.458-75.974-3.303-9.91-6.606-19.819-3.303-29.729 0-9.91 6.606-19.819 13.213-26.426s16.516-9.91 26.426-13.213c9.91 0 19.819 0 26.426 6.606 16.516 13.213 33.032 26.426 42.942 42.942 26.426 36.335 49.548 72.671 69.368 112.31 3.303 3.303 3.303 6.606 6.606 9.91s6.606 3.303 13.213 3.303c46.245 13.213 92.49 19.819 138.735 23.123 3.303 0 6.606 0 9.91-3.303s6.606-3.303 9.91-6.606c23.123-26.426 49.548-46.245 79.277-62.761 23.123-9.91 49.548-13.213 75.974-3.303 6.606 0 13.213 6.606 19.819 9.91 6.606 6.606 9.91 13.213 9.91 19.819 3.303 6.606 0 16.516 0 23.123-3.303 9.91-6.606 16.516-13.213 23.123zM198.194 305.961c-6.606-6.606-16.516-13.213-26.426-16.516-3.303 0-6.606-3.303-9.91 0 0 0 0 0-3.303 3.303 0 0 0 3.303 0 3.303s0 3.303 0 3.303c0 0 0 3.303 3.303 3.303 3.303 9.91 6.606 16.516 13.213 23.123 19.819 23.123 42.942 42.942 69.368 59.458 3.303 0 3.303 3.303 9.91 0-19.819-29.729-36.335-56.155-56.155-79.277v0zM353.445 758.503c3.303 6.606 3.303 19.819 13.213 19.819 6.606 0 6.606-13.213 9.91-19.819 3.303-39.639 0-75.974-9.91-115.613-16.516 39.639-19.819 79.277-13.213 115.613zM333.626 457.91c16.516 33.032 29.729 66.065 42.942 99.097 19.819-26.426 42.942-56.155 62.761-82.581-36.335 0-72.671-6.606-105.703-16.516zM630.916 405.058c0-6.606-9.91-9.91-16.516-9.91-19.819 0-36.335 3.303-52.852 13.213-13.213 9.91-26.426 19.819-39.639 29.729 33.032 3.303 66.065-6.606 95.794-19.819 3.303 0 6.606-3.303 9.91-3.303 0 0 3.303-6.606 3.303-9.91v0zM307.2 210.168c-6.606 6.606-13.213 9.91-19.819 13.213s-16.516 3.303-23.123 3.303h-52.852v-161.858h42.942v56.155h9.91c6.606 0 16.516 0 23.123 3.303s13.213 6.606 19.819 13.213c6.606 6.606 9.91 13.213 13.213 19.819s3.303 13.213 3.303 23.123c0 6.606 0 13.213-3.303 19.819-3.303-3.303-6.606 3.303-13.213 9.91zM274.168 157.316c-3.303-3.303-9.91-6.606-16.516-6.606h-6.606v39.639h13.213c3.303 0 3.303 0 6.606 0s3.303-3.303 6.606-3.303c0 0 3.303-3.303 3.303-6.606s0-3.303 0-6.606 0-6.606-3.303-6.606c0-6.606 0-9.91-3.303-9.91v0zM402.994 223.381h-52.852v-161.858h46.245c9.91 0 23.123 0 33.032 3.303s19.819 9.91 26.426 16.516c6.606 6.606 13.213 16.516 16.516 29.729 3.303 9.91 3.303 23.123 3.303 33.032s0 19.819-3.303 33.032c-3.303 9.91-9.91 19.819-16.516 26.426s-16.516 13.213-23.123 16.516c-9.91 3.303-19.819 3.303-29.729 3.303zM426.116 107.768c-6.606-6.606-16.516-9.91-26.426-9.91h-9.91v89.187h13.213c9.91 0 19.819-3.303 26.426-9.91 3.303-3.303 6.606-9.91 9.91-16.516s3.303-13.213 0-19.819c0-9.91-6.606-23.123-13.213-33.032v0zM505.394 61.523h42.942v62.761h46.245v33.032h-46.245v29.729h49.548v33.032h-92.49v-158.555zM571.458 943.484h-465.755c-13.213 0-26.426-3.303-39.639-6.606-13.213-6.606-23.123-13.213-33.032-23.123-13.213-13.213-19.819-26.426-26.426-39.639-3.303-13.213-6.606-26.426-6.606-42.942v-769.652c0-13.213 3.303-29.729 6.606-42.942 6.606-13.213 13.213-26.426 23.123-36.335s23.123-19.819 33.032-23.123c13.213-6.606 26.426-6.606 39.639-6.606h581.368c13.213 0 26.426 3.303 39.639 6.606 13.213 6.606 23.123 13.213 33.032 23.123s16.516 23.123 23.123 36.335c6.606 13.213 6.606 26.426 6.606 42.942v647.432l-214.71 234.529zM578.065 874.116l151.948-165.161h-151.948v165.161zM687.071-1.239h-581.368c-6.606 0-16.516 3.303-23.123 6.606s-13.213 6.606-19.819 13.213c-6.606 6.606-9.91 13.213-13.213 19.819s-3.303 16.516-3.303 26.426v766.348c0 9.91 0 16.516 3.303 26.426s6.606 16.516 13.213 19.819c3.303 6.606 9.91 13.213 19.819 16.516 6.606 3.303 16.516 3.303 23.123 3.303h429.419v-234.529h214.71v-597.884c0-9.91 0-16.516-3.303-26.426-3.303-6.606-6.606-16.516-13.213-19.819-6.606-6.606-13.213-9.91-19.819-13.213-9.91-6.606-16.516-6.606-26.426-6.606z" />
<glyph unicode="&#xe937;" glyph-name="word" horiz-adv-x="991" d="M971.148 857.6h-393.084v66.065c0 6.606-3.303 9.91-6.606 19.819h-16.516l-538.426-128.826c-3.303 0-9.91-3.303-13.213-6.606 0-6.606-3.303-9.91-3.303-16.516v-733.316c0-6.606 3.303-9.91 6.606-13.213s6.606-6.606 13.213-6.606l535.123-85.884c6.606 0 9.91 3.303 16.516 6.606 3.303 3.303 6.606 6.606 9.91 13.213v69.368h393.084c6.606 0 9.91 3.303 13.213 6.606s6.606 9.91 6.606 16.516v776.258c0 6.606-3.303 9.91-6.606 13.213-6.606 3.303-13.213 3.303-16.516 3.303zM455.845 570.219l-82.581-303.897c0-3.303-3.303-9.91-6.606-9.91-3.303-3.303-9.91-3.303-13.213-3.303s-9.91 0-13.213 3.303c-3.303 3.303-6.606 6.606-9.91 9.91l-59.458 234.529-62.761-227.923c0-3.303-3.303-6.606-3.303-6.606-3.303-3.303-3.303-3.303-6.606-3.303s-6.606 0-9.91 0c-3.303 0-6.606 0-6.606 3.303-3.303 3.303-9.91 6.606-9.91 9.91l-82.581 303.897c0 3.303 0 6.606 0 9.91s0 6.606 3.303 6.606c0 3.303 3.303 3.303 6.606 6.606s3.303 3.303 6.606 3.303 6.606 0 6.606 0 6.606 0 6.606-3.303c3.303 0 3.303-3.303 6.606-6.606 0-3.303 3.303-3.303 3.303-6.606l62.761-227.923 62.761 227.923c0 3.303 3.303 6.606 3.303 6.606 3.303-3.303 6.606 0 6.606 0 3.303 0 6.606 0 9.91 0s6.606 0 6.606-3.303 9.91-6.606 9.91-9.91l62.761-227.923 62.761 227.923c0 3.303 3.303 6.606 3.303 6.606 0 3.303 3.303 3.303 6.606 6.606 3.303 0 3.303 3.303 6.606 3.303s6.606 0 6.606 0c3.303-3.303 6.606-6.606 9.91-13.213 6.606-6.606 6.606-9.91 6.606-16.516zM948.026 81.342h-369.961v85.884h307.2c6.606 0 9.91 3.303 13.213 6.606s6.606 9.91 6.606 16.516c0 6.606-3.303 9.91-6.606 16.516-3.303 3.303-9.91 6.606-13.213 6.606h-307.2v85.884h307.2c6.606 0 9.91 3.303 13.213 6.606s6.606 9.91 6.606 16.516c0 6.606-3.303 9.91-6.606 16.516-3.303 3.303-9.91 6.606-13.213 6.606h-307.2v85.884h307.2c6.606 0 9.91 3.303 13.213 6.606s6.606 9.91 6.606 16.516c0 6.606-3.303 9.91-6.606 16.516s-9.91 6.606-13.213 6.606h-307.2v85.884h307.2c6.606 0 9.91 3.303 13.213 6.606s6.606 9.91 6.606 16.516c0 6.606-3.303 9.91-6.606 16.516-3.303 3.303-9.91 6.606-13.213 6.606h-307.2v75.974h307.2c6.606 0 9.91 3.303 13.213 6.606s6.606 9.91 6.606 16.516c0 6.606-3.303 9.91-6.606 16.516s-6.606 3.303-13.213 3.303h-307.2v85.884h369.961v-733.316z" />
<glyph unicode="&#xe938;" glyph-name="body-mass-index" horiz-adv-x="573" d="M143.36 269.824c4.096-94.208 8.192-178.176 10.24-264.192 0-6.144 0-10.24 2.048-14.336s4.096-8.192 8.192-12.288c4.096-4.096 8.192-4.096 14.336-6.144 10.24 0 22.528 0 30.72 0 4.096 0 4.096 2.048 4.096 4.096v294.912c0 2.048 0 6.144 2.048 8.192s2.048 6.144 6.144 8.192 4.096 4.096 8.192 4.096c2.048 0 6.144 0 8.192 0 4.096 0 6.144-2.048 10.24-6.144 2.048-2.048 4.096-6.144 4.096-10.24 0-2.048 0-6.144 0-8.192v-284.672c0-12.288-2.048-10.24 12.288-10.24h20.48c4.096 0 8.192 0 10.24 2.048s6.144 4.096 8.192 6.144c2.048 2.048 4.096 6.144 6.144 8.192 2.048 4.096 2.048 6.144 2.048 10.24 2.048 34.816 2.048 71.68 4.096 106.496 2.048 47.104 4.096 94.208 6.144 141.312 0 2.048 0 4.096 0 6.144s-2.048 4.096-4.096 6.144c-34.816 36.864-59.392 81.92-65.536 131.072-6.144 38.912-8.192 79.872-6.144 118.784 0 4.096 2.048 8.192 4.096 12.288 2.048 2.048 6.144 4.096 12.288 4.096 49.152 6.144 96.256 24.576 135.168 53.248 4.096 2.048 8.192 4.096 12.288 4.096s8.192-2.048 12.288-4.096c38.912-28.672 86.016-45.056 135.168-51.2 4.096 0 8.192-2.048 12.288-6.144s4.096-8.192 4.096-12.288c2.048-45.056 0-92.16-10.24-137.216-12.288-53.248-40.96-98.304-83.968-133.12-18.432-14.336-40.96-24.576-63.488-32.768-4.096-2.048-10.24-2.048-16.384 0-12.288 4.096-26.624 10.24-36.864 16.384-4.096 2.048-6.144 2.048-6.144-2.048l-8.192-174.080c0-16.384-2.048-32.768-2.048-51.2 0-16.384-8.192-30.72-20.48-40.96s-26.624-16.384-43.008-16.384h-102.4c-16.384 0-32.768 6.144-43.008 16.384-12.288 10.24-18.432 26.624-18.432 43.008-4.096 102.4-8.192 204.8-12.288 305.152 0 2.048 0 2.048 0 4.096 0 10.24 0 10.24-10.24 12.288-26.624 4.096-51.2 16.384-67.584 36.864s-26.624 45.056-26.624 71.68c-2.048 34.816-2.048 69.632 2.048 106.496 4.096 40.96 20.48 81.92 45.056 114.688 26.624 32.768 61.44 59.392 100.352 73.728 2.048 2.048 4.096 2.048 8.192 2.048 2.048 0 4.096 0 8.192-2.048s4.096-2.048 6.144-4.096 4.096-4.096 4.096-6.144c0-2.048 2.048-4.096 2.048-8.192 0-2.048 0-4.096-2.048-8.192-2.048-2.048-2.048-4.096-4.096-6.144s-4.096-2.048-6.144-4.096c-30.72-12.288-59.392-32.768-79.872-57.344-20.48-26.624-34.816-57.344-40.96-90.112-2.048-8.192-2.048-18.432-2.048-26.624 0-30.72 0-59.392 0-90.112 0-16.384 6.144-30.72 16.384-43.008s24.576-20.48 40.96-24.576c2.048-2.048 2.048-2.048 2.048 8.192 0 53.248 0 108.544 0 161.792 0 2.048 0 6.144 0 8.192s2.048 4.096 4.096 6.144c2.048 2.048 6.144 4.096 8.192 6.144 4.096 0 8.192 0 10.24 0 4.096-2.048 6.144-4.096 8.192-6.144 2.048-4.096 4.096-6.144 4.096-10.24 0-22.528 0-47.104 0-69.632 4.096-65.536 2.048-131.072 6.144-188.416zM282.624 458.24c0-28.672 4.096-59.392 12.288-88.064 6.144-28.672 20.48-53.248 38.912-75.776s43.008-38.912 69.632-49.152c2.048-2.048 4.096-2.048 8.192-2.048 2.048 0 6.144 0 8.192 2.048 22.528 10.24 45.056 24.576 61.44 40.96 18.432 18.432 30.72 38.912 38.912 63.488 14.336 45.056 20.48 90.112 18.432 137.216 0 4.096-2.048 4.096-4.096 4.096-43.008 8.192-81.92 24.576-118.784 47.104 0 0-2.048 2.048-4.096 2.048s-2.048 0-4.096-2.048c-36.864-22.528-77.824-38.912-118.784-47.104-4.096 0-4.096-2.048-4.096-6.144-2.048-6.144-2.048-16.384-2.048-26.624zM233.472 740.864c-22.528 0-43.008 6.144-61.44 18.432s-32.768 28.672-40.96 49.152c-8.192 20.48-10.24 40.96-6.144 63.488 4.096 20.48 14.336 40.96 30.72 55.296s34.816 26.624 57.344 30.72c20.48 4.096 43.008 2.048 63.488-6.144s36.864-22.528 49.152-40.96c12.288-18.432 18.432-38.912 18.432-61.44 0-28.672-12.288-57.344-32.768-77.824-20.48-18.432-49.152-30.72-77.824-30.72zM233.472 925.184c-14.336 0-28.672-4.096-40.96-12.288s-20.48-20.48-26.624-32.768c-6.144-16.384-6.144-30.72-4.096-45.056s10.24-26.624 20.48-36.864c10.24-10.24 24.576-16.384 36.864-20.48 14.336-2.048 28.672-2.048 43.008 4.096s24.576 14.336 32.768 26.624c8.192 12.288 12.288 26.624 12.288 40.96 0 10.24-2.048 18.432-6.144 28.672-4.096 8.192-10.24 16.384-16.384 24.576-6.144 6.144-14.336 12.288-24.576 16.384-8.192 2.048-16.384 4.096-26.624 6.144v0zM413.696 644.608c0-4.096-2.048-6.144-2.048-10.24-2.048-2.048-4.096-6.144-8.192-6.144-4.096-2.048-8.192-2.048-10.24 0-4.096 0-6.144 2.048-10.24 6.144-6.144 6.144-12.288 12.288-18.432 18.432-18.432 16.384-38.912 28.672-61.44 36.864-4.096 2.048-6.144 4.096-10.24 6.144-2.048 4.096-4.096 6.144-4.096 10.24s2.048 8.192 4.096 10.24c2.048 2.048 6.144 6.144 10.24 6.144 4.096 2.048 8.192 2.048 12.288 0 34.816-14.336 67.584-34.816 92.16-63.488 2.048-2.048 4.096-4.096 4.096-6.144 2.048-4.096 2.048-6.144 2.048-8.192zM393.216 306.688c-2.048 0-6.144 0-8.192 2.048s-4.096 4.096-6.144 6.144l-45.056 61.44c-2.048 4.096-4.096 8.192-4.096 14.336 0 4.096 4.096 8.192 8.192 12.288 4.096 2.048 8.192 4.096 14.336 4.096 4.096 0 10.24-4.096 12.288-8.192 8.192-12.288 16.384-22.528 24.576-34.816 4.096-4.096 4.096-6.144 8.192 0l65.536 90.112c2.048 2.048 4.096 4.096 6.144 6.144s4.096 2.048 8.192 4.096c4.096 0 6.144 0 10.24 0s6.144-4.096 8.192-6.144c2.048-4.096 4.096-6.144 4.096-10.24s-2.048-8.192-4.096-10.24c-4.096-8.192-10.24-14.336-16.384-22.528l-69.632-94.208c-2.048-2.048-4.096-6.144-8.192-8.192s-4.096-6.144-8.192-6.144z" />
<glyph unicode="&#xe939;" glyph-name="calorie-calculation" horiz-adv-x="553" d="M237.568 740.864c22.528 0 45.056 6.144 63.488 18.432s32.768 28.672 40.96 49.152c8.192 20.48 10.24 40.96 6.144 63.488-4.096 20.48-14.336 40.96-30.72 55.296s-34.816 26.624-57.344 30.72-45.056 2.048-65.536-6.144c-20.48-8.192-38.912-22.528-51.2-40.96s-18.432-38.912-18.432-61.44c0-28.672 12.288-57.344 32.768-77.824 20.48-18.432 49.152-30.72 79.872-30.72zM237.568 925.184c14.336 0 28.672-4.096 43.008-12.288 12.288-8.192 22.528-18.432 28.672-32.768s8.192-28.672 4.096-43.008c-2.048-14.336-10.24-26.624-20.48-36.864s-24.576-16.384-38.912-20.48c-14.336-2.048-30.72-2.048-43.008 4.096-16.384 4.096-26.624 14.336-34.816 26.624s-14.336 26.624-14.336 40.96c0 18.432 8.192 36.864 22.528 51.2 14.336 12.288 32.768 20.48 53.248 22.528v0zM309.248 722.432c-4.096 0-8.192-4.096-10.24-6.144s-4.096-6.144-4.096-10.24c0-4.096 0-8.192 4.096-10.24 2.048-4.096 6.144-6.144 10.24-6.144 22.528-8.192 45.056-20.48 63.488-36.864 6.144-6.144 12.288-12.288 18.432-18.432 2.048-2.048 6.144-4.096 10.24-6.144 4.096 0 8.192 0 10.24 0 4.096 2.048 6.144 4.096 8.192 6.144s4.096 6.144 4.096 10.24c0 2.048 0 4.096-2.048 8.192 0 2.048-2.048 4.096-4.096 6.144-24.576 28.672-57.344 51.2-94.208 63.488-4.096 0-10.24 0-14.336 0zM524.288 402.944l-18.432 14.336-8.192-22.528c-4.096-14.336-12.288-26.624-22.528-34.816 0 0-2.048 0-2.048 0s-2.048 0-2.048 0-4.096 2.048-4.096 4.096c-2.048 2.048-2.048 4.096-2.048 6.144-2.048 16.384-2.048 34.816 2.048 51.2 4.096 26.624-2.048 55.296-16.384 77.824-8.192 10.24-18.432 20.48-28.672 26.624-12.288 6.144-24.576 12.288-38.912 12.288l-45.056 8.192 30.72-34.816c12.288-16.384 18.432-36.864 16.384-57.344-2.048-12.288-6.144-24.576-14.336-34.816-6.144-10.24-16.384-18.432-26.624-26.624-2.048-2.048-4.096-2.048-6.144-2.048s-4.096 0-6.144 0c-2.048 0-4.096 2.048-4.096 6.144l-6.144 43.008-24.576-34.816c-12.288-16.384-18.432-36.864-20.48-57.344s0-40.96 8.192-59.392c8.192-22.528 22.528-43.008 43.008-57.344-2.048-43.008-4.096-86.016-6.144-129.024-2.048-34.816-2.048-71.68-4.096-106.496 0-4.096 0-6.144-2.048-10.24s-4.096-6.144-6.144-8.192c-2.048-2.048-6.144-4.096-10.24-6.144s-6.144-2.048-10.24-2.048h-20.48c-12.288 0-12.288-2.048-12.288 10.24v288.768c0 2.048 0 6.144 0 8.192 0 4.096-2.048 8.192-4.096 10.24s-6.144 4.096-10.24 6.144c-2.048 0-6.144 0-8.192 0s-6.144-2.048-8.192-4.096c-2.048-2.048-4.096-4.096-6.144-8.192-2.048-2.048-2.048-6.144-2.048-8.192v-294.912c0-4.096 0-4.096-4.096-4.096-10.24 0-22.528 0-32.768 0-6.144 0-10.24 2.048-14.336 6.144s-6.144 8.192-8.192 12.288c-2.048 4.096-2.048 10.24-2.048 16.384-4.096 86.016-8.192 172.032-10.24 264.192-4.096 57.344-2.048 120.832-2.048 186.368 0 22.528 0 47.104 0 69.632 0 4.096 0 8.192-4.096 10.24-2.048 4.096-6.144 6.144-10.24 6.144-4.096 2.048-8.192 2.048-10.24 0-4.096 0-6.144-2.048-8.192-6.144-2.048-2.048-4.096-4.096-4.096-6.144s-2.048-6.144 0-8.192c0-53.248 0-108.544 0-161.792 0-8.192 0-8.192-10.24-8.192-16.384 4.096-30.72 12.288-40.96 24.576-8.192 12.288-14.336 26.624-14.336 43.008 0 30.72 0 59.392 0 90.112 0 8.192 0 18.432 2.048 26.624 6.144 32.768 20.48 63.488 40.96 90.112 22.528 26.624 49.152 45.056 81.92 57.344 2.048 0 4.096 2.048 6.144 4.096s4.096 4.096 4.096 6.144c2.048 2.048 2.048 4.096 2.048 8.192 0 2.048 0 4.096-2.048 8.192 0 2.048-2.048 4.096-4.096 6.144s-4.096 4.096-6.144 4.096c-2.048 0-4.096 2.048-8.192 2.048-2.048 0-4.096 0-8.192-2.048-40.96-14.336-75.776-40.96-102.4-73.728-22.528-36.864-38.912-77.824-43.008-118.784-2.048-34.816-4.096-69.632-2.048-106.496 0-26.624 10.24-51.2 26.624-71.68 18.432-20.48 43.008-32.768 69.632-36.864 10.24-2.048 10.24-2.048 10.24-12.288 0-2.048 0-2.048 0-4.096 4.096-102.4 8.192-204.8 12.288-305.152 0-16.384 8.192-30.72 20.48-43.008 12.288-8.192 28.672-14.336 45.056-14.336h104.448c16.384 0 32.768 6.144 45.056 16.384s18.432 26.624 20.48 40.96c0 16.384 2.048 32.768 2.048 51.2 2.048 55.296 4.096 112.64 6.144 167.936 14.336-6.144 28.672-8.192 45.056-8.192h4.096c24.576 0 49.152 6.144 69.632 18.432s38.912 30.72 51.2 51.2c12.288 18.432 18.432 38.912 20.48 59.392 2.048 12.288 0 26.624-6.144 38.912s-14.336 22.528-24.576 30.72zM503.808 292.352c-8.192-16.384-22.528-30.72-38.912-40.96s-36.864-14.336-55.296-14.336c-16.384 0-30.72 4.096-45.056 12.288s-26.624 16.384-34.816 30.72c-8.192 12.288-14.336 26.624-18.432 40.96-2.048 14.336-2.048 30.72 2.048 45.056 2.048-2.048 6.144-2.048 8.192-4.096 8.192-2.048 14.336-2.048 22.528 0s14.336 4.096 20.48 10.24c14.336 10.24 26.624 22.528 34.816 36.864s14.336 30.72 16.384 47.104c2.048 12.288 0 24.576-2.048 36.864 8.192-8.192 14.336-18.432 16.384-28.672 4.096-10.24 4.096-22.528 2.048-32.768-4.096-22.528-6.144-43.008-2.048-65.536 2.048-8.192 4.096-14.336 8.192-20.48s10.24-10.24 18.432-14.336c4.096-2.048 10.24-4.096 16.384-4.096s10.24 2.048 16.384 4.096c12.288 6.144 20.48 14.336 26.624 26.624 2.048-6.144 2.048-14.336 2.048-20.48 0-18.432-6.144-32.768-14.336-45.056z" />
<glyph unicode="&#xe93a;" glyph-name="delivery" horiz-adv-x="655" d="M647.168 421.376c0 8.192-2.048 20.48-16.384 22.528-4.096 0-8.192 0-10.24-4.096-4.096-4.096-6.144-10.24-6.144-20.48v-157.696c0-67.584-24.576-135.168-69.632-186.368s-106.496-86.016-174.080-96.256c-67.584-10.24-137.216 4.096-194.56 40.96s-100.352 92.16-120.832 157.696c-12.288 51.2-16.384 102.4-12.288 155.648v102.4l10.24-8.192c24.576-20.48 51.2-38.912 77.824-51.2 30.72-14.336 59.392-32.768 83.968-53.248 8.192-8.192 20.48-12.288 28.672-2.048 2.048 4.096 4.096 6.144 4.096 10.24 0 6.144-4.096 14.336-12.288 20.48-18.432 14.336-38.912 28.672-59.392 38.912l-2.048 2.048c-4.096 2.048-12.288 8.192-12.288 18.432s4.096 20.48 8.192 28.672c4.096 8.192 12.288 16.384 20.48 22.528s18.432 10.24 28.672 12.288c10.24 2.048 20.48 2.048 30.72-2.048 51.2-22.528 108.544-22.528 159.744 0 12.288 6.144 26.624 6.144 38.912 4.096 12.288-4.096 24.576-12.288 30.72-22.528l4.096-6.144-6.144-4.096c-57.344-32.768-110.592-73.728-159.744-116.736-61.44-55.296-116.736-118.784-161.792-188.416-4.096-6.144-6.144-12.288-4.096-18.432 0-4.096 4.096-8.192 8.192-10.24 8.192-4.096 14.336-6.144 22.528 8.192 86.016 133.12 204.8 241.664 346.112 315.392 30.72 16.384 55.296 36.864 75.776 65.536 20.48 26.624 32.768 59.392 38.912 92.16 30.72 147.456-69.632 307.2-221.184 352.256-8.192 2.048-18.432 4.096-26.624 8.192-6.144 2.048-10.24 2.048-16.384 4.096h-100.352c-2.048-2.048-6.144-2.048-8.192-4.096-79.872-16.384-149.504-59.392-196.608-122.88-43.008-55.296-65.536-122.88-65.536-190.464 0-6.144 0-12.288 4.096-16.384 2.048-2.048 6.144-4.096 12.288-4.096 8.192 0 18.432 2.048 18.432 20.48 0 16.384 2.048 34.816 6.144 51.2 12.288 63.488 45.056 120.832 94.208 161.792s110.592 65.536 176.128 67.584c63.488 2.048 129.024-16.384 180.224-55.296s90.112-94.208 106.496-155.648c24.576-92.16 4.096-167.936-61.44-223.232-10.24-8.192-20.48-16.384-30.72-14.336-8.192 2.048-14.336 6.144-20.48 16.384-2.048 4.096-6.144 6.144-12.288 8.192-4.096 2.048-10.24 6.144-10.24 12.288s2.048 10.24 6.144 14.336c16.384 18.432 28.672 36.864 38.912 59.392 2.048 4.096 4.096 8.192 8.192 12.288s8.192 6.144 12.288 6.144c12.288 4.096 22.528 12.288 28.672 22.528 8.192 10.24 12.288 22.528 12.288 34.816s-4.096 26.624-10.24 36.864c-8.192 10.24-18.432 18.432-30.72 22.528-6.144 2.048-10.24 4.096-14.336 8.192s-6.144 8.192-8.192 14.336c-12.288 30.72-32.768 57.344-55.296 77.824-4.096 4.096-10.24 8.192-16.384 8.192-4.096 0-8.192-2.048-10.24-6.144-2.048-2.048-4.096-4.096-4.096-8.192 0-2.048 0-4.096 0-8.192 0-2.048 2.048-4.096 2.048-6.144 0 0 2.048-2.048 4.096-4.096 26.624-20.48 47.104-49.152 55.296-81.92 0-4.096 2.048-6.144 2.048-8.192 2.048-2.048 4.096-4.096 6.144-6.144s4.096-2.048 8.192-4.096c2.048 0 6.144 0 8.192 0 4.096 0 8.192 0 12.288-2.048s6.144-4.096 10.24-6.144c2.048-2.048 4.096-6.144 6.144-10.24s2.048-8.192 2.048-12.288c0-2.048 0-6.144-2.048-10.24s-4.096-8.192-6.144-10.24c-2.048-2.048-6.144-4.096-10.24-6.144s-8.192-2.048-12.288-2.048c-6.144 0-12.288-2.048-16.384-4.096-4.096-4.096-8.192-8.192-8.192-14.336-10.24-36.864-30.72-67.584-59.392-90.112s-65.536-34.816-102.4-34.816c-36.864 0-73.728 12.288-102.4 32.768-28.672 22.528-51.2 53.248-61.44 88.064 0 6.144-4.096 10.24-8.192 14.336s-10.24 4.096-14.336 4.096c-4.096 0-8.192 0-12.288 0-2.048 4.096-6.144 6.144-8.192 8.192s-6.144 6.144-6.144 10.24c-2.048 4.096-2.048 8.192-2.048 12.288s0 8.192 2.048 12.288c2.048 4.096 4.096 8.192 6.144 10.24s6.144 4.096 10.24 6.144c4.096 2.048 8.192 2.048 12.288 0 4.096 0 10.24 2.048 14.336 4.096 4.096 4.096 6.144 8.192 6.144 14.336 2.048 8.192 6.144 16.384 8.192 24.576 12.288 28.672 34.816 53.248 61.44 71.68 26.624 16.384 57.344 26.624 90.112 26.624 4.096 0 10.24 0 14.336-2.048s10.24-6.144 12.288-10.24c4.096-4.096 4.096-10.24 6.144-16.384 0-6.144-2.048-10.24-4.096-16.384-4.096-4.096-8.192-8.192-12.288-12.288-6.144-2.048-10.24-4.096-16.384-4.096-2.048 0-4.096 0-6.144-2.048-2.048 0-4.096-2.048-4.096-4.096-2.048-2.048-2.048-4.096-2.048-6.144s0-4.096 0-6.144 0-6.144 2.048-8.192c0-2.048 2.048-4.096 4.096-4.096 2.048-2.048 4.096-2.048 6.144-2.048s4.096 0 6.144 0c14.336 0 28.672 4.096 40.96 14.336s18.432 22.528 20.48 36.864c2.048 10.24 2.048 20.48 0 30.72s-8.192 18.432-14.336 26.624c-8.192 6.144-18.432 12.288-26.624 14.336-10.24 4.096-20.48 4.096-30.72 2.048-38.912-2.048-75.776-12.288-108.544-34.816-30.72-22.528-55.296-51.2-71.68-86.016-2.048-4.096-4.096-8.192-6.144-12.288-4.096-4.096-8.192-6.144-12.288-8.192-14.336-4.096-24.576-12.288-32.768-22.528s-12.288-24.576-12.288-36.864c0-14.336 4.096-26.624 10.24-38.912 8.192-10.24 18.432-18.432 32.768-22.528 4.096-2.048 8.192-4.096 12.288-6.144 4.096-4.096 6.144-6.144 8.192-10.24 8.192-22.528 22.528-43.008 38.912-59.392 2.048-8.192 6.144-12.288 6.144-18.432s-6.144-10.24-10.24-12.288c-22.528-12.288-38.912-32.768-45.056-57.344-2.048-4.096-4.096-10.24-8.192-12.288-6.144-2.048-10.24 2.048-14.336 4.096h-4.096c-18.432 12.288-34.816 28.672-45.056 49.152s-16.384 40.96-16.384 63.488c0 16.384-6.144 20.48-16.384 20.48 0 0-2.048 0-2.048 0-4.096 0-8.192-2.048-10.24-4.096-4.096-4.096-6.144-10.24-6.144-20.48v-215.040c-2.048-38.912 0-79.872 6.144-118.784 14.336-73.728 53.248-139.264 110.592-186.368s131.072-71.68 206.848-71.68c75.776 0 147.456 26.624 204.8 75.776s96.256 114.688 108.544 188.416c8.192 45.056 6.144 92.16 6.144 139.264-2.048 24.576-2.048 49.152-2.048 75.776zM348.16 564.736v0 0c0-2.048 0-6.144-2.048-8.192s-2.048-4.096-4.096-6.144c-2.048-2.048-4.096-4.096-6.144-4.096s-6.144-2.048-8.192 0v0 0c-2.048 0-6.144 0-8.192 2.048-2.048 0-4.096 2.048-6.144 4.096s-4.096 4.096-4.096 6.144c0 2.048-2.048 4.096 0 8.192v0 0c0 2.048 0 6.144 2.048 8.192 0 2.048 2.048 4.096 4.096 6.144s4.096 4.096 6.144 4.096c2.048 0 6.144 0 8.192 0v0 0c2.048 0 6.144 0 8.192-2.048s4.096-2.048 6.144-4.096c2.048-2.048 4.096-4.096 4.096-6.144 0-4.096 0-6.144 0-8.192zM258.048 654.848v0 0c2.048 0 6.144 0 8.192-2.048s4.096-2.048 6.144-4.096c2.048-2.048 2.048-4.096 4.096-6.144 0-2.048 0-6.144 0-8.192v0 0c0-2.048 0-4.096-2.048-8.192 0-2.048-2.048-4.096-4.096-6.144s-4.096-2.048-6.144-4.096c-2.048 0-4.096 0-8.192 0v0 0c-2.048 0-6.144 0-8.192 2.048-2.048 0-4.096 2.048-6.144 4.096s-4.096 4.096-4.096 6.144c0 2.048 0 6.144 0 8.192v0 0c0 6.144 2.048 10.24 6.144 14.336 2.048 2.048 8.192 4.096 14.336 4.096zM397.312 654.848c4.096 0 10.24-4.096 12.288-6.144 4.096-4.096 4.096-8.192 4.096-14.336 0-4.096-2.048-10.24-6.144-12.288-4.096-4.096-8.192-6.144-12.288-6.144-2.048 0-6.144 0-8.192 2.048s-4.096 2.048-6.144 4.096c-2.048 2.048-4.096 4.096-4.096 6.144-2.048 2.048-2.048 6.144-2.048 8.192s0 6.144 2.048 8.192c2.048 2.048 2.048 4.096 4.096 6.144s4.096 4.096 8.192 4.096 6.144 0 8.192 0z" />
<glyph unicode="&#xe93b;" glyph-name="location" d="M534.528 687.616c-90.112 0-163.84-73.728-163.84-163.84s73.728-163.84 163.84-163.84c90.112 0 163.84 73.728 163.84 163.84s-73.728 163.84-163.84 163.84zM534.528 439.808c-47.104 0-83.968 36.864-83.968 83.968s36.864 83.968 83.968 83.968c47.104 0 83.968-36.864 83.968-83.968 0-45.056-38.912-83.968-83.968-83.968zM534.528 935.424c-227.328 0-411.648-186.368-411.648-413.696 0-280.576 321.536-557.056 411.648-557.056s411.648 276.48 411.648 557.056c0 227.328-186.368 413.696-411.648 413.696zM534.528 44.544c-57.344 14.336-331.776 245.76-331.776 477.184 0 184.32 149.504 333.824 331.776 333.824s331.776-149.504 331.776-333.824c-2.048-231.424-276.48-462.848-331.776-477.184z" />
<glyph unicode="&#xe93c;" glyph-name="paper-plane" d="M794.624 884.224l-649.216-215.040c-24.576-8.192-47.104-24.576-63.488-47.104s-24.576-47.104-24.576-73.728c0-26.624 6.144-53.248 22.528-75.776s36.864-38.912 61.44-49.152l239.616-92.16c6.144-2.048 10.24-6.144 14.336-10.24s8.192-10.24 10.24-14.336l92.16-239.616c8.192-20.48 20.48-38.912 36.864-53.248s36.864-24.576 57.344-28.672c20.48-4.096 43.008-4.096 63.488 2.048s40.96 18.432 55.296 32.768c14.336 14.336 24.576 32.768 32.768 51.2l217.088 649.216c8.192 22.528 8.192 47.104 4.096 71.68-6.144 24.576-18.432 45.056-34.816 61.44s-38.912 28.672-61.44 34.816c-24.576 4.096-51.2 4.096-73.728-4.096v0zM876.544 747.008l-215.040-649.216c-2.048-8.192-8.192-16.384-16.384-20.48-8.192-6.144-16.384-8.192-24.576-8.192s-18.432 2.048-24.576 8.192c-8.192 4.096-12.288 12.288-16.384 20.48l-92.16 239.616c-2.048 4.096-2.048 6.144-4.096 10.24l212.992 210.944c8.192 8.192 12.288 18.432 12.288 30.72s-4.096 22.528-12.288 30.72c-8.192 8.192-20.48 12.288-30.72 12.288-12.288 0-22.528-4.096-30.72-12.288l-212.992-212.992c-2.048 2.048-6.144 2.048-10.24 4.096l-239.616 92.16c-8.192 4.096-16.384 8.192-20.48 16.384s-8.192 16.384-8.192 24.576c0 8.192 2.048 18.432 8.192 24.576s12.288 12.288 20.48 16.384l651.264 217.088c8.192 2.048 16.384 2.048 24.576 0s14.336-6.144 20.48-12.288c6.144-6.144 10.24-12.288 12.288-20.48 0-6.144 0-14.336-4.096-22.528z" />
<glyph unicode="&#xe93d;" glyph-name="chat" d="M106.496-16.896c-14.336 0-26.624 2.048-38.912 8.192-16.384 8.192-28.672 18.432-38.912 32.768-8.192 14.336-14.336 32.768-14.336 49.152v727.040c0 24.576 10.24 47.104 26.624 65.536s40.96 26.624 65.536 26.624h804.864c24.576 0 47.104-10.24 65.536-26.624 16.384-16.384 26.624-40.96 26.624-65.536v-585.728c0-24.576-10.24-47.104-26.624-65.536-16.384-16.384-40.96-26.624-65.536-26.624h-604.16l-141.312-118.784c-16.384-14.336-36.864-20.48-59.392-20.48zM124.928 781.824v-667.648l116.736 98.304c16.384 14.336 36.864 20.48 59.392 20.48h591.872v548.864h-768z" />
<glyph unicode="&#xe93e;" glyph-name="email" d="M868.352 855.552h-714.752c-40.96 0-79.872-16.384-108.544-45.056s-45.056-67.584-45.056-106.496v-509.952c0-40.96 16.384-79.872 45.056-108.544s67.584-45.056 108.544-45.056h714.752c40.96 0 79.872 16.384 108.544 45.056s45.056 67.584 45.056 108.544v509.952c0 40.96-16.384 79.872-45.056 108.544s-67.584 43.008-108.544 43.008zM153.6 755.2h714.752c14.336 0 26.624-6.144 36.864-14.336s14.336-22.528 14.336-36.864l-409.6-249.856-407.552 249.856c0 14.336 6.144 26.624 14.336 36.864s22.528 14.336 36.864 14.336zM919.552 192c0-14.336-6.144-26.624-14.336-36.864s-24.576-14.336-36.864-14.336h-714.752c-14.336 0-26.624 6.144-36.864 14.336s-14.336 24.576-14.336 36.864v395.264l380.928-233.472c8.192-4.096 16.384-6.144 24.576-6.144s18.432 2.048 24.576 6.144l382.976 233.472v-395.264z" />
<glyph unicode="&#xe93f;" glyph-name="mission" d="M1024 855.552c-4.096-24.576-6.144-51.2-10.24-75.776-16.384-98.304-55.296-186.368-131.072-253.952-8.192-8.192-12.288-16.384-10.24-28.672 16.384-147.456-32.768-270.336-143.36-370.688-12.288-10.24-24.576-20.48-36.864-30.72-8.192-6.144-18.432-8.192-26.624-4.096s-12.288 12.288-12.288 24.576c0 24.576-10.24 49.152-22.528 71.68-14.336 28.672-30.72 53.248-49.152 79.872-4.096 6.144-8.192 6.144-14.336 2.048-14.336-10.24-30.72-14.336-49.152-8.192-6.144 2.048-10.24 0-14.336-4.096-10.24-10.24-20.48-22.528-32.768-32.768-22.528-22.528-53.248-24.576-75.776-2.048-36.864 34.816-71.68 71.68-106.496 106.496-18.432 20.48-16.384 53.248 4.096 73.728 10.24 12.288 22.528 22.528 34.816 34.816 4.096 4.096 6.144 8.192 4.096 12.288-6.144 18.432-2.048 34.816 6.144 49.152 2.048 4.096 4.096 8.192-2.048 10.24-43.008 30.72-88.064 59.392-141.312 71.68-4.096 0-8.192 2.048-14.336 2.048-12.288 0-20.48 6.144-24.576 16.384-6.144 10.24-2.048 18.432 4.096 26.624 69.632 94.208 157.696 155.648 274.432 178.176 43.008 8.192 86.016 8.192 131.072 2.048 8.192-2.048 14.336 0 18.432 6.144 79.872 88.064 182.272 129.024 296.96 141.312 12.288 2.048 24.576 0 36.864 4.096h75.776c12.288-6.144 22.528-14.336 26.624-26.624l4.096-75.776zM456.704 361.984c18.432-18.432 40.96-34.816 61.44-47.104 10.24-6.144 18.432-6.144 26.624 2.048 92.16 65.536 182.272 133.12 266.24 208.896 38.912 36.864 77.824 73.728 106.496 120.832 45.056 79.872 57.344 169.984 61.44 260.096 0 10.24-6.144 8.192-12.288 8.192-45.056 0-88.064-4.096-133.12-14.336-71.68-14.336-139.264-43.008-192.512-94.208-51.2-49.152-96.256-102.4-139.264-155.648s-81.92-106.496-122.88-161.792c-8.192-10.24-10.24-18.432-2.048-28.672 10.24-14.336 18.432-28.672 30.72-43.008 16.384-20.48 16.384-20.48 32.768-2.048 26.624 26.624 53.248 53.248 79.872 79.872 10.24 10.24 22.528 10.24 32.768 2.048s10.24-22.528 0-32.768c-2.048-4.096-6.144-6.144-10.24-10.24l-86.016-92.16zM829.44 472.576c-2.048 0-2.048 0-4.096-2.048-65.536-57.344-135.168-110.592-204.8-161.792-6.144-4.096-6.144-6.144-2.048-12.288 30.72-43.008 57.344-88.064 73.728-139.264 96.256 83.968 145.408 186.368 137.216 315.392v0zM223.232 628.224c49.152-16.384 94.208-43.008 135.168-71.68 8.192-6.144 12.288-4.096 16.384 2.048 32.768 45.056 65.536 90.112 102.4 133.12 20.48 24.576 38.912 47.104 59.392 71.68-79.872 26.624-260.096-51.2-313.344-135.168v0zM356.352 407.040c-10.24-12.288-20.48-22.528-30.72-32.768-6.144-6.144-6.144-10.24 0-16.384 32.768-30.72 63.488-63.488 96.256-94.208 6.144-6.144 12.288-6.144 18.432 0 8.192 8.192 14.336 16.384 22.528 22.528 6.144 6.144 4.096 8.192-2.048 12.288-8.192 6.144-14.336 12.288-22.528 18.432-30.72 24.576-57.344 55.296-81.92 90.112v0zM303.104-6.656c-4.096 0-10.24 0-14.336 2.048s-8.192 6.144-10.24 10.24c-22.528 34.816-18.432 71.68 2.048 104.448 14.336 24.576 36.864 43.008 57.344 61.44 10.24 8.192 22.528 6.144 32.768-2.048 2.048-2.048 4.096-4.096 4.096-8.192 2.048-2.048 2.048-6.144 2.048-8.192s0-6.144-2.048-8.192c-2.048-2.048-2.048-6.144-4.096-8.192-12.288-12.288-26.624-26.624-38.912-38.912-20.48-20.48-24.576-43.008-10.24-69.632 10.24-16.384 0-34.816-18.432-34.816zM120.832 200.192c-18.432 0-36.864 6.144-51.2 16.384-10.24 8.192-14.336 22.528-6.144 32.768 4.096 4.096 8.192 8.192 14.336 10.24s12.288 0 16.384-2.048c30.72-14.336 49.152-10.24 73.728 12.288 10.24 10.24 22.528 22.528 32.768 32.768 12.288 12.288 24.576 12.288 34.816 2.048s10.24-22.528-2.048-32.768c-16.384-18.432-32.768-38.912-53.248-51.2-18.432-12.288-36.864-20.48-59.392-20.48zM311.296 222.72c0-8.192-4.096-14.336-8.192-18.432-18.432-18.432-34.816-36.864-53.248-53.248-12.288-12.288-24.576-12.288-34.816-2.048s-10.24 22.528 2.048 34.816c18.432 18.432 36.864 36.864 53.248 53.248 8.192 8.192 16.384 10.24 26.624 6.144 4.096-2.048 8.192-4.096 10.24-8.192s4.096-8.192 4.096-12.288zM0 267.776c0 2.048 0 6.144 2.048 8.192s2.048 6.144 4.096 8.192c2.048 2.048 4.096 4.096 8.192 4.096 2.048 2.048 6.144 2.048 8.192 2.048 6.144 0 12.288-2.048 16.384-8.192 4.096-4.096 6.144-10.24 6.144-16.384s-2.048-12.288-8.192-16.384c-2.048-4.096-8.192-6.144-14.336-6.144-14.336 2.048-22.528 8.192-22.528 24.576zM309.248-39.424c0 14.336 8.192 22.528 22.528 20.48 14.336 0 24.576-10.24 24.576-22.528 0-2.048 0-6.144-2.048-8.192s-2.048-6.144-6.144-8.192c-2.048-2.048-4.096-4.096-8.192-4.096-2.048-2.048-4.096-2.048-8.192-2.048-6.144 0-12.288 2.048-16.384 6.144-2.048 2.048-4.096 4.096-4.096 8.192-2.048 4.096-2.048 6.144-2.048 10.24zM184.32 140.8c14.336 0 24.576-8.192 24.576-20.48s-10.24-22.528-22.528-22.528c-14.336 0-22.528 8.192-24.576 22.528 0 12.288 8.192 20.48 22.528 20.48zM845.824 679.424c0-26.624-10.24-53.248-30.72-71.68-18.432-18.432-45.056-28.672-71.68-30.72-26.624 0-53.248 10.24-71.68 30.72-18.432 18.432-30.72 45.056-30.72 71.68 0 55.296 47.104 100.352 102.4 100.352 59.392 2.048 102.4-43.008 102.4-100.352zM743.424 626.176c30.72 0 55.296 22.528 55.296 53.248s-24.576 55.296-55.296 53.248c-6.144 0-14.336-2.048-20.48-4.096s-12.288-6.144-18.432-12.288c-4.096-4.096-8.192-10.24-12.288-18.432-2.048-6.144-4.096-14.336-4.096-20.48s2.048-14.336 4.096-20.48c2.048-6.144 6.144-12.288 12.288-18.432 4.096-4.096 10.24-8.192 18.432-12.288 6.144 2.048 14.336 0 20.48 0zM579.584 495.104c-14.336 0-22.528 8.192-22.528 22.528 0 6.144 2.048 12.288 6.144 16.384s10.24 6.144 16.384 8.192c10.24 0 22.528-12.288 22.528-24.576 0-14.336-8.192-22.528-22.528-22.528z" />
<glyph unicode="&#xe940;" glyph-name="vision" d="M794.624 429.568c12.288 40.96 12.288 83.968 0 131.072-22.528 83.968-73.728 147.456-151.552 186.368-32.768 16.384-71.68 24.576-124.928 24.576v0h-6.144c-6.144 0-16.384 0-24.576-2.048-38.912-4.096-67.584-10.24-94.208-24.576-71.68-38.912-120.832-98.304-145.408-176.128-20.48-65.536-14.336-126.976 16.384-186.368 14.336-26.624 32.768-51.2 57.344-81.92 4.096-4.096 8.192-8.192 10.24-12.288v0c12.288-12.288 22.528-24.576 32.768-38.912 8.192-12.288 18.432-26.624 18.432-43.008 0-4.096 0-6.144 2.048-10.24 2.048-2.048 4.096-6.144 6.144-8.192 0 0 0 0 0 0-4.096-2.048-6.144-4.096-10.24-8.192-2.048-4.096-4.096-8.192-4.096-12.288s0-8.192 2.048-12.288c2.048-4.096 4.096-6.144 8.192-8.192s8.192-4.096 12.288-2.048c2.048 0 4.096 0 8.192 0l57.344 14.336 6.144 2.048c53.248 14.336 108.544 28.672 161.792 43.008 6.144 2.048 14.336 4.096 18.432 10.24 6.144 4.096 10.24 10.24 12.288 16.384 4.096 8.192 10.24 18.432 16.384 24.576 8.192 12.288 18.432 22.528 28.672 32.768 8.192 10.24 18.432 20.48 26.624 30.72 28.672 38.912 49.152 73.728 59.392 110.592zM534.528 259.584v0c0-10.24 0-20.48 0-30.72-8.192-2.048-18.432-4.096-26.624-6.144 0 8.192 0 18.432 0 26.624v14.336c0 6.144 0 10.24 0 16.384 0 10.24 0 20.48 0 32.768-2.048 20.48-10.24 40.96-22.528 59.392 2.048 0 4.096-2.048 4.096-2.048 22.528-14.336 45.056-12.288 65.536 2.048l2.048 2.048c-16.384-22.528-24.576-49.152-22.528-79.872 0-14.336 0-24.576 0-34.816zM579.584 298.496c0 24.576 10.24 45.056 28.672 59.392 2.048 2.048 6.144 4.096 8.192 6.144 4.096 4.096 8.192 10.24 10.24 16.384s2.048 12.288 2.048 18.432c0 6.144-4.096 12.288-8.192 18.432s-8.192 10.24-14.336 12.288c-6.144 4.096-14.336 4.096-20.48 4.096s-14.336-2.048-20.48-6.144c-12.288-6.144-24.576-14.336-34.816-22.528h-2.048c-2.048-2.048-4.096-2.048-6.144-2.048s-6.144 0-8.192 2.048c-4.096 2.048-10.24 6.144-14.336 10.24v0l-4.096 2.048c-2.048 2.048-4.096 2.048-4.096 4.096-6.144 4.096-10.24 8.192-16.384 10.24-10.24 4.096-20.48 4.096-28.672 2.048-10.24-2.048-18.432-8.192-24.576-16.384-10.24-16.384-8.192-38.912 8.192-53.248 2.048-2.048 4.096-4.096 6.144-6.144l2.048-2.048c16.384-14.336 24.576-30.72 24.576-53.248 0-18.432 0-36.864 0-55.296 0-10.24 0-20.48 0-30.72 0 0 0 0 0-2.048v0c0-2.048 0-4.096 0-6.144-12.288-4.096-24.576-6.144-36.864-10.24 2.048 4.096 2.048 6.144 2.048 10.24 0 12.288-4.096 24.576-8.192 34.816-12.288 26.624-28.672 47.104-43.008 63.488l-8.192 10.24c-18.432 20.48-36.864 43.008-53.248 65.536-22.528 36.864-32.768 67.584-34.816 98.304-2.048 77.824 28.672 143.36 88.064 194.56 24.576 20.48 51.2 34.816 79.872 43.008 20.48 6.144 43.008 6.144 59.392 8.192 8.192 0 14.336 0 20.48 0 30.72 0 55.296-4.096 75.776-14.336 92.16-38.912 143.36-110.592 151.552-210.944 4.096-38.912-8.192-75.776-34.816-118.784-14.336-22.528-32.768-43.008-49.152-63.488l-6.144-6.144c-16.384-18.432-34.816-38.912-45.056-61.44l-6.144-2.048-32.768-8.192c0 6.144 0 12.288 0 18.432-2.048 14.336-2.048 26.624-2.048 38.912v0zM401.408 71.168c2.048 0 4.096 0 6.144 0s2.048 0 4.096 0l65.536 18.432 120.832 32.768 6.144 2.048c16.384 4.096 32.768 8.192 49.152 14.336 12.288 4.096 18.432 10.24 18.432 22.528 0 4.096 0 6.144-2.048 10.24-2.048 2.048-4.096 6.144-6.144 8.192-6.144 0-8.192 2.048-12.288 2.048s-8.192 0-12.288 0c-65.536-18.432-131.072-34.816-198.656-53.248l-16.384-4.096c-10.24-2.048-20.48-6.144-30.72-8.192-2.048 0-6.144-2.048-8.192-4.096s-4.096-4.096-6.144-6.144c-2.048-2.048-2.048-6.144-2.048-8.192s0-6.144 0-8.192c2.048-4.096 4.096-8.192 8.192-12.288 6.144-4.096 10.24-6.144 16.384-6.144zM655.36 103.936c-6.144 2.048-12.288 2.048-18.432 0l-176.128-47.104-34.816-10.24-30.72-8.192c-14.336-4.096-18.432-14.336-18.432-20.48 0-4.096 0-8.192 2.048-10.24 2.048-4.096 4.096-6.144 6.144-8.192 4.096-4.096 10.24-6.144 16.384-6.144 2.048 0 6.144 0 8.192 2.048l30.72 8.192c-2.048-4.096-4.096-6.144-4.096-10.24 0-6.144 2.048-12.288 6.144-16.384 20.48-26.624 49.152-40.96 79.872-40.96v0c45.056 0 83.968 28.672 102.4 71.68 2.048 4.096 2.048 8.192 2.048 12.288s-2.048 8.192-6.144 10.24c-2.048 2.048-6.144 6.144-10.24 6.144-4.096 2.048-8.192 2.048-12.288 0-4.096 0-6.144-2.048-8.192-4.096s-4.096-4.096-6.144-8.192c-4.096-10.24-10.24-18.432-18.432-26.624-14.336-12.288-30.72-18.432-49.152-14.336-14.336 2.048-26.624 10.24-36.864 22.528-2.048 2.048-6.144 4.096-8.192 6.144 24.576 6.144 49.152 12.288 71.68 18.432l67.584 18.432h2.048c14.336 4.096 26.624 6.144 40.96 10.24 16.384 4.096 18.432 16.384 18.432 22.528 0 4.096-2.048 8.192-4.096 12.288-4.096 6.144-8.192 8.192-12.288 10.24zM495.616 880.128v-16.384c0-12.288 0-26.624 0-40.96 0-4.096 0-6.144 2.048-10.24s4.096-6.144 6.144-8.192 10.24-6.144 14.336-6.144c2.048 0 2.048 0 4.096 0 12.288 2.048 18.432 10.24 18.432 24.576 0 20.48 0 40.96 0 61.44v24.576c0 8.192 0 18.432 0 26.624 0 4.096 0 8.192-4.096 12.288-2.048 4.096-6.144 6.144-10.24 8.192-2.048 4.096-6.144 4.096-8.192 4.096-4.096 0-8.192-2.048-10.24-4.096-4.096-2.048-6.144-6.144-8.192-8.192-2.048-4.096-2.048-8.192-2.048-12.288 0-14.336 0-26.624 0-38.912-2.048-6.144-2.048-12.288-2.048-16.384zM276.48 730.624c2.048-2.048 4.096-4.096 8.192-6.144 2.048-2.048 6.144-2.048 8.192-2.048 6.144 0 12.288 2.048 16.384 6.144 2.048 2.048 4.096 4.096 6.144 8.192 2.048 2.048 2.048 6.144 2.048 8.192 0 4.096 0 6.144-2.048 8.192s-2.048 6.144-6.144 8.192c-20.48 20.48-40.96 38.912-59.392 59.392l-18.432 18.432c-2.048 2.048-4.096 4.096-6.144 4.096-2.048 2.048-6.144 2.048-8.192 2.048-10.24 0-18.432-4.096-22.528-12.288-4.096-2.048-4.096-6.144-4.096-12.288 0-4.096 4.096-8.192 6.144-12.288 24.576-22.528 51.2-49.152 79.872-77.824zM729.088 724.48v0c4.096 0 8.192 0 10.24 2.048 4.096 2.048 6.144 4.096 8.192 6.144 6.144 6.144 12.288 12.288 18.432 18.432l26.624 24.576c10.24 10.24 20.48 20.48 32.768 30.72 4.096 2.048 6.144 6.144 6.144 10.24 2.048 4.096 2.048 8.192 0 12.288s-4.096 8.192-6.144 10.24c-2.048 2.048-6.144 4.096-10.24 6.144-12.288 2.048-20.48-6.144-22.528-8.192-14.336-14.336-28.672-28.672-43.008-43.008l-24.576-24.576c-4.096-2.048-6.144-6.144-10.24-10.24-2.048-4.096-4.096-6.144-6.144-10.24 0-4.096 0-8.192 2.048-12.288s4.096-6.144 8.192-10.24c2.048 0 6.144-2.048 10.24-2.048v0zM210.944 523.776c0 12.288-8.192 22.528-22.528 22.528-2.048 0-4.096 0-4.096 0h-92.16c-4.096 0-10.24 0-14.336 0s-8.192-2.048-12.288-4.096c-4.096-4.096-8.192-8.192-8.192-12.288-2.048-4.096-2.048-6.144-2.048-10.24s2.048-6.144 4.096-10.24c2.048-2.048 4.096-6.144 8.192-8.192s6.144-2.048 10.24-2.048 14.336 0 22.528 0h63.488c8.192 0 14.336 0 22.528 0 14.336 2.048 24.576 10.24 24.576 24.576zM968.704 525.824c0 6.144-4.096 10.24-8.192 14.336s-10.24 6.144-14.336 6.144c-12.288 0-24.576 0-38.912 0h-32.768c-12.288 0-24.576 0-38.912 0-2.048 0-6.144 0-8.192-2.048s-6.144-2.048-8.192-4.096c-2.048-2.048-4.096-4.096-4.096-8.192-2.048-2.048-2.048-6.144-2.048-8.192 0-12.288 10.24-22.528 24.576-22.528 16.384 0 32.768 0 49.152 0 20.48 0 38.912 0 57.344 0 4.096 0 6.144 0 10.24 2.048s8.192 6.144 12.288 10.24c2.048 2.048 2.048 8.192 2.048 12.288zM798.72 263.68c-6.144 6.144-12.288 12.288-18.432 18.432l-2.048 2.048c-2.048 2.048-6.144 6.144-8.192 8.192-4.096 2.048-8.192 4.096-12.288 4.096s-8.192 0-12.288-2.048c-4.096-2.048-8.192-4.096-10.24-8.192s-4.096-8.192-4.096-12.288c0-2.048 0-6.144 2.048-8.192s2.048-6.144 4.096-8.192c24.576-24.576 43.008-43.008 61.44-61.44 2.048-2.048 4.096-4.096 8.192-4.096 2.048-2.048 6.144-2.048 8.192-2.048s4.096 0 4.096 0c4.096 0 8.192 2.048 10.24 6.144s6.144 6.144 6.144 10.24c2.048 4.096 2.048 8.192 0 12.288s-4.096 8.192-6.144 10.24c-8.192 14.336-20.48 24.576-30.72 34.816zM251.904 290.304c-14.336-14.336-28.672-28.672-43.008-43.008l-16.384-16.384c-2.048-2.048-4.096-4.096-6.144-6.144 0-4.096-2.048-6.144-2.048-10.24s2.048-8.192 4.096-12.288c2.048-4.096 6.144-6.144 10.24-8.192s10.24-2.048 14.336-2.048c4.096 2.048 8.192 4.096 12.288 6.144l16.384 16.384c14.336 14.336 28.672 28.672 43.008 43.008 2.048 2.048 4.096 4.096 6.144 8.192 2.048 2.048 2.048 6.144 2.048 8.192s0 6.144-2.048 8.192c-2.048 2.048-2.048 6.144-4.096 8.192-10.24 10.24-24.576 10.24-34.816 0z" />
<glyph unicode="&#xe941;" glyph-name="accountability" d="M894.494 827.482c-3.012 3.012-9.035 6.024-15.059 6.024h-72.282c-102.4 0-201.788 42.165-277.082 117.459-3.012 6.024-9.035 9.035-15.059 9.035s-12.047-3.012-15.059-6.024c-75.294-75.294-174.682-117.459-277.082-117.459h-72.282c-6.024 0-12.047-3.012-15.059-6.024-3.012-6.024-6.024-12.047-6.024-18.071v-364.424c0-120.471 36.141-219.859 114.447-307.2 63.247-75.294 147.576-126.494 213.835-168.659 15.059-9.035 33.129-21.082 45.176-30.118 3.012-3.012 9.035-3.012 12.047-3.012s9.035 0 12.047 3.012c15.059 9.035 30.118 18.071 45.176 30.118 129.506 81.318 328.282 207.812 328.282 475.859v364.424c0 6.024-3.012 12.047-6.024 15.059zM855.341 451.012c0-243.953-177.694-355.388-307.2-439.718l-3.012-3.012c-9.035-6.024-18.071-12.047-27.106-15.059l-3.012-3.012-3.012 3.012c-9.035 6.024-18.071 12.047-30.118 18.071-129.506 81.318-307.2 192.753-307.2 436.706v343.341h48.188c105.412 0 207.812 39.153 286.118 111.435v0l6.024 6.024 6.024-9.035c81.318-72.282 183.718-111.435 286.118-111.435h48.188v-337.318zM515.012 713.035c-147.576 0-265.035-120.471-265.035-265.035 0-147.576 120.471-265.035 265.035-265.035 147.576 0 265.035 120.471 265.035 265.035 3.012 144.565-117.459 265.035-265.035 265.035zM671.624 291.388c-42.165-42.165-96.376-66.259-156.612-66.259-45.176 0-87.341 12.047-123.482 36.141s-63.247 60.235-81.318 99.388c-18.071 39.153-21.082 84.329-12.047 126.494s30.118 81.318 60.235 114.447c30.118 30.118 69.271 51.2 114.447 60.235 42.165 9.035 87.341 3.012 126.494-12.047 39.153-18.071 75.294-45.176 99.388-81.318s36.141-78.306 36.141-123.482c3.012-57.224-21.082-111.435-63.247-153.6zM638.494 529.318c-6.024 0-12.047-3.012-15.059-6.024l-138.541-135.529-75.294 75.294c-3.012 3.012-9.035 6.024-15.059 6.024s-12.047-3.012-15.059-6.024c-3.012-3.012-6.024-9.035-6.024-15.059s3.012-12.047 6.024-15.059l90.353-90.353c3.012-3.012 9.035-6.024 15.059-6.024s12.047 3.012 15.059 6.024l153.6 153.6c3.012 3.012 6.024 9.035 6.024 15.059s-3.012 12.047-6.024 15.059c-3.012 3.012-9.035 3.012-15.059 3.012z" />
<glyph unicode="&#xe942;" glyph-name="community" d="M177.694 50.447c42.165-36.141 66.259-57.224 66.259-87.341v-27.106h234.918v27.106c0 60.235-3.012 123.482-12.047 183.718-18.071 141.553-132.518 256-274.071 268.047h-3.012v3.012c-3.012 12.047-6.024 27.106-6.024 42.165-6.024 39.153-24.094 72.282-51.2 99.388-30.118 24.094-66.259 39.153-102.4 39.153h-30.118v-150.588c0-201.788 66.259-298.165 177.694-397.553zM51.2 538.353h6.024c18.071-6.024 36.141-18.071 48.188-33.129s21.082-33.129 24.094-54.212c12.047-105.412 57.224-228.894 123.482-265.035l24.094 48.188c-12.047 9.035-48.188 39.153-75.294 120.471v3.012h6.024c54.212-9.035 102.4-36.141 138.541-75.294s60.235-90.353 66.259-144.565c6.024-48.188 9.035-99.388 9.035-147.576v-3.012h-129.506v3.012c-12.047 39.153-45.176 69.271-78.306 99.388-72.282 63.247-162.635 141.553-162.635 358.4v90.353zM846.306 50.447c93.365 81.318 177.694 174.682 177.694 397.553v147.576h-27.106c-39.153 0-75.294-15.059-102.4-39.153-30.118-24.094-48.188-60.235-51.2-99.388-3.012-15.059-3.012-27.106-6.024-42.165v-3.012h-3.012c-141.553-12.047-259.012-123.482-274.071-268.047-6.024-60.235-12.047-123.482-12.047-183.718v-24.094h234.918v27.106c-3.012 30.118 18.071 51.2 63.247 87.341zM731.859-9.788v0l-132.518-3.012v3.012c0 48.188 6.024 99.388 9.035 147.576 6.024 54.212 30.118 105.412 66.259 144.565s87.341 66.259 138.541 75.294h6.024l-3.012-6.024c-27.106-81.318-63.247-111.435-75.294-120.471l24.094-48.188c69.271 36.141 111.435 159.624 123.482 265.035 3.012 21.082 12.047 39.153 24.094 54.212s30.118 27.106 48.188 33.129l6.024 3.012v-90.353c0-216.847-90.353-295.153-159.624-358.4-30.118-30.118-63.247-57.224-75.294-99.388v0zM512 960c-147.576 0-268.047-120.471-268.047-271.059 0-147.576 120.471-268.047 268.047-268.047s268.047 120.471 268.047 268.047c0 150.588-120.471 271.059-268.047 271.059zM512 475.106c-57.224 0-111.435 24.094-153.6 63.247-39.153 39.153-63.247 96.376-63.247 153.6 0 120.471 96.376 216.847 216.847 216.847 117.459 0 216.847-96.376 216.847-216.847 0-57.224-24.094-111.435-63.247-153.6-42.165-42.165-96.376-63.247-153.6-63.247zM596.329 649.788c-9.035-15.059-21.082-30.118-36.141-39.153s-33.129-15.059-51.2-15.059c-18.071 0-36.141 6.024-51.2 15.059s-27.106 24.094-36.141 39.153l-42.165-21.082c12.047-27.106 30.118-48.188 54.212-63.247s51.2-24.094 78.306-24.094c27.106 0 57.224 9.035 78.306 24.094 24.094 15.059 42.165 36.141 54.212 63.247l-48.188 21.082zM448.753 776.282h-51.2v-51.2h51.2v51.2zM629.459 776.282h-51.2v-51.2h51.2v51.2z" />
</font>
</defs>
</svg>
